<svg xmlns="http://www.w3.org/2000/svg" xmlns:xlink="http://www.w3.org/1999/xlink" width="785" height="1110"  style="background-color:white;" >
                                            <defs id="canvasGridDefs">
                                                <pattern id="smallGrid" width="5" height="5" patternUnits="userSpaceOnUse">
                                                    <path id="smallGridPath" d="M 5 0 L 0 0 0 5" fill="none" stroke="lightgray" stroke-width="0.5"></path>
                                                </pattern>
                                                <pattern id="watermarkGrid" width="220" height="80" patternUnits="userSpaceOnUse">
                                                    <rect id="watermarkGridPath0" x="0" y="0" width="220" height="80" fill="white"></rect>
                                                    <text x="60" y="55" transform="rotate(-30 90,90)" fill="#eeeeee" font-family="Arial" font-size="16">Flowdia Diagrams </text>
                                                </pattern>

                                            </defs>
                                            <rect id="canvasGrid" width="100%" height="100%" fill="white"></rect>
                                            <rect id="shapeSelectGrid" width="0" height="0" x="0" y="0" fill="gray" stroke="gray" fill-opacity="0.2" stroke-width="1"></rect>
                                            <circle id="selectionMarker" cx="0" cy="0" r="50" fill="darkslateblue" stroke="darkslateblue" fill-opacity="0.2" stroke-width="0" style="display: none;"></circle>
                                        <rect id="process1a822ae5-5d52-46a7-a0cc-6f498d7142ef" x="240" y="40" height="50" width="90" rx="0" ry="0" fill="white" fill-opacity="1" stroke-opacity="1" stroke="black"></rect><text id="process1a822ae5-5d52-46a7-a0cc-6f498d7142efText" x="240" y="54.8125" fill="black" font-size="14" font-family="Arial" font-weight="bold" text-anchor="middle"><tspan x="285" dy="16.375">comp_target </tspan></text><rect id="4f9f077b-f932-487a-8c2e-d356d38c4cef" x="235" y="35" height="60" width="100" stroke-width="1" stroke-dasharray="3,1" fill="none" stroke="none"></rect><rect id="terminatorf6696bd5-bdaf-4ec1-a161-c4908d41bf45" x="30" y="265" height="40" width="110" rx="20" ry="20" fill="white" fill-opacity="1" stroke-opacity="1" stroke="black"></rect><text id="terminatorf6696bd5-bdaf-4ec1-a161-c4908d41bf45Text" x="30" y="274.8125" fill="black" font-size="14" font-family="Arial" font-weight="bold" text-anchor="middle"><tspan x="85" dy="16.375">Random target </tspan></text><rect id="fa114186-fd0e-4d25-a5af-45d682bc63cc" x="25" y="260" height="50" width="120" stroke-width="1" stroke-dasharray="3,1" fill="none" stroke="none"></rect><polygon id="decisioneb6df4e4-f61a-438e-9b2f-9322159bd214" points=" 505,250  450,285  505,320  560,285  505,250 " fill="white" fill-opacity="1" stroke-opacity="1" stroke="black" fill-rule="nonzero"></polygon><text id="decisioneb6df4e4-f61a-438e-9b2f-9322159bd214Text" x="450" y="275.953125" fill="black" font-size="12" font-family="Arial" font-weight="normal" text-anchor="middle"><tspan x="505" dy="14.09375">Target locked? </tspan></text><rect id="57184ac3-1191-457c-a419-e3f4b42bdc99" x="445" y="245" height="80" width="120" stroke-width="1" stroke-dasharray="3,1" fill="none" stroke="none"></rect><rect id="terminator6176f7f1-286d-4612-a6c1-e0297b4e6a6f" x="230" y="425" height="40" width="110" rx="20" ry="20" fill="white" fill-opacity="1" stroke-opacity="1" stroke="black"></rect><text id="terminator6176f7f1-286d-4612-a6c1-e0297b4e6a6fText" x="230" y="434.8125" fill="black" font-size="14" font-family="Arial" font-weight="bold" text-anchor="middle"><tspan x="285" dy="16.375">Selected target </tspan></text><rect id="ce148096-9ed1-4d81-92a2-da03b2b84081" x="225" y="420" height="50" width="120" stroke-width="1" stroke-dasharray="3,1" fill="none" stroke="none"></rect><polygon id="decision8dd6c7fc-643f-4372-af60-47b75b1c7ac5" points=" 285,120  230,155  285,190  340,155  285,120 " fill="white" fill-opacity="1" stroke-opacity="1" stroke="black" fill-rule="nonzero"></polygon><text id="decision8dd6c7fc-643f-4372-af60-47b75b1c7ac5Text" x="230" y="145.953125" fill="black" font-size="12" font-family="Arial" font-weight="normal" text-anchor="middle"><tspan x="285" dy="14.09375">Difficulty? </tspan></text><rect id="b0d9adba-ea07-411e-9316-2985db98b1bf" x="225" y="115" height="80" width="120" stroke-width="1" stroke-dasharray="3,1" fill="none" stroke="none"></rect><polygon id="offPageConne05f0337-555b-4955-bcd5-5fde1c7db7b7" points=" 610,410  610,465  655,480  700,465  700,410  610,410 " fill="white" fill-opacity="1" stroke-opacity="1" stroke="black" fill-rule="nonzero"></polygon><text id="offPageConne05f0337-555b-4955-bcd5-5fde1c7db7b7Text" x="610" y="426.625" fill="black" font-size="14" font-family="Arial" font-weight="bold" text-anchor="middle"><tspan x="655" dy="16.375">Call </tspan><tspan x="655" dy="16.375">search_target </tspan></text><rect id="d219bbb1-a999-4f03-903c-7f6b05e9b4d8" x="605" y="405" height="80" width="100" stroke-width="1" stroke-dasharray="3,1" fill="none" stroke="none"></rect><rect id="process7deb81bd-17dc-4c06-89a9-d4b3f826df07" x="610" y="640" height="50" width="90" rx="0" ry="0" fill="white" fill-opacity="1" stroke-opacity="1" stroke="black"></rect><text id="process7deb81bd-17dc-4c06-89a9-d4b3f826df07Text" x="610" y="648.90625" fill="black" font-size="12" font-family="Arial" font-weight="normal" text-anchor="middle"><tspan x="655" dy="14.09375">List targets hit </tspan><tspan x="655" dy="14.09375">and not sunk </tspan></text><rect id="138abb7c-fc7d-40a0-ac5e-fe949f65e344" x="605" y="635" height="60" width="100" stroke-width="1" stroke-dasharray="3,1" fill="none" stroke="none"></rect><rect id="process7b7eb656-1229-40b4-b4db-25173b0bfae2" x="240" y="530" height="50" width="90" rx="0" ry="0" fill="white" fill-opacity="1" stroke-opacity="1" stroke="black"></rect><text id="process7b7eb656-1229-40b4-b4db-25173b0bfae2Text" x="240" y="538.90625" fill="black" font-size="12" font-family="Arial" font-weight="normal" text-anchor="middle"><tspan x="285" dy="14.09375">Select target </tspan><tspan x="285" dy="14.09375">from list </tspan></text><rect id="5e9fd857-071f-49de-a4c6-2d9c7d6f965f" x="235" y="525" height="60" width="100" stroke-width="1" stroke-dasharray="3,1" fill="none" stroke="none"></rect><polygon id="decision157a6c0b-0e15-4bd2-9152-f5547d2db173" points=" 505,630  450,665  505,700  560,665  505,630 " fill="white" fill-opacity="1" stroke-opacity="1" stroke="black" fill-rule="nonzero"></polygon><text id="decision157a6c0b-0e15-4bd2-9152-f5547d2db173Text" x="450" y="655.953125" fill="black" font-size="12" font-family="Arial" font-weight="normal" text-anchor="middle"><tspan x="505" dy="14.09375">List not empty? </tspan></text><rect id="92713247-725b-41ee-9869-ea268c4673ab" x="445" y="625" height="80" width="120" stroke-width="1" stroke-dasharray="3,1" fill="none" stroke="none"></rect><polygon id="offPageConnc216b360-b0fe-41f8-a476-549b2753a8a1" points=" 25,630  25,685  85,700  145,685  145,630  25,630 " fill="white" fill-opacity="1" stroke-opacity="1" stroke="black" fill-rule="nonzero"></polygon><text id="offPageConnc216b360-b0fe-41f8-a476-549b2753a8a1Text" x="25" y="646.625" fill="black" font-size="14" font-family="Arial" font-weight="bold" text-anchor="middle"><tspan x="85" dy="16.375">Call </tspan><tspan x="85" dy="16.375">calculate_target </tspan></text><rect id="c26677f4-873b-4911-a289-ce61decf212e" x="20" y="625" height="80" width="130" stroke-width="1" stroke-dasharray="3,1" fill="none" stroke="none"></rect><rect id="processe6d673ac-6612-40a8-bbed-6755dd9f7232" x="610" y="530" height="50" width="90" rx="0" ry="0" fill="white" fill-opacity="1" stroke-opacity="1" stroke="black"></rect><text id="processe6d673ac-6612-40a8-bbed-6755dd9f7232Text" x="610" y="544.8125" fill="black" font-size="14" font-family="Arial" font-weight="bold" text-anchor="middle"><tspan x="655" dy="16.375">search_target </tspan></text><rect id="7bae7991-8026-4b14-affa-fb9b7a781a80" x="605" y="525" height="60" width="100" stroke-width="1" stroke-dasharray="3,1" fill="none" stroke="none"></rect><rect id="process746d93d7-6f5a-4b64-b8ae-9a38462ad16b" x="25" y="835" height="50" width="120" rx="0" ry="0" fill="white" fill-opacity="1" stroke-opacity="1" stroke="black"></rect><text id="process746d93d7-6f5a-4b64-b8ae-9a38462ad16bText" x="25" y="849.8125" fill="black" font-size="14" font-family="Arial" font-weight="bold" text-anchor="middle"><tspan x="85" dy="16.375">calculate_target </tspan></text><rect id="fb37f650-f551-410a-8f2f-d071e6ad4dc9" x="20" y="830" height="60" width="130" stroke-width="1" stroke-dasharray="3,1" fill="none" stroke="none"></rect><polygon id="decision65014c4e-b181-4eac-a3fb-2c78d3319ef7" points=" 285,940  230,975  285,1010  340,975  285,940 " fill="white" fill-opacity="1" stroke-opacity="1" stroke="black" fill-rule="nonzero"></polygon><text id="decision65014c4e-b181-4eac-a3fb-2c78d3319ef7Text" x="230" y="965.953125" fill="black" font-size="12" font-family="Arial" font-weight="normal" text-anchor="middle"><tspan x="285" dy="14.09375">Already checked? </tspan></text><rect id="dfc4ebf2-1a4f-4c08-b02e-50fd25000c20" x="225" y="935" height="80" width="120" stroke-width="1" stroke-dasharray="3,1" fill="none" stroke="none"></rect><polygon id="decision052278c4-f732-4a29-8f60-e2dd6152c063" points=" 655,940  600,975  655,1010  710,975  655,940 " fill="white" fill-opacity="1" stroke-opacity="1" stroke="black" fill-rule="nonzero"></polygon><text id="decision052278c4-f732-4a29-8f60-e2dd6152c063Text" x="600" y="958.90625" fill="black" font-size="12" font-family="Arial" font-weight="normal" text-anchor="middle"><tspan x="655" dy="14.09375">Attempts </tspan><tspan x="655" dy="14.09375">remaining? </tspan></text><rect id="60e6a673-0768-4cce-aa7d-a82ee96c3aa3" x="595" y="935" height="80" width="120" stroke-width="1" stroke-dasharray="3,1" fill="none" stroke="none"></rect><rect id="processe499307d-1f65-4a70-ba95-f0adf5edd898" x="460" y="740" height="50" width="90" rx="0" ry="0" fill="white" fill-opacity="1" stroke-opacity="1" stroke="black"></rect><text id="processe499307d-1f65-4a70-ba95-f0adf5edd898Text" x="460" y="748.90625" fill="black" font-size="12" font-family="Arial" font-weight="normal" text-anchor="middle"><tspan x="505" dy="14.09375">Remove target </tspan><tspan x="505" dy="14.09375">from list </tspan></text><rect id="26ab74ff-3ec7-4bf7-a3f4-28918ed6c8fd" x="455" y="735" height="60" width="100" stroke-width="1" stroke-dasharray="3,1" fill="none" stroke="none"></rect><rect id="process4e415fcd-b787-4a1f-a53b-f8e66ddf3113" x="460" y="1040" height="50" width="90" rx="0" ry="0" fill="white" fill-opacity="1" stroke-opacity="1" stroke="black"></rect><text id="process4e415fcd-b787-4a1f-a53b-f8e66ddf3113Text" x="460" y="1048.90625" fill="black" font-size="12" font-family="Arial" font-weight="normal" text-anchor="middle"><tspan x="505" dy="14.09375">Change </tspan><tspan x="505" dy="14.09375">direction </tspan></text><rect id="83484ee3-8fb0-4452-a68a-608c799d6c52" x="455" y="1035" height="60" width="100" stroke-width="1" stroke-dasharray="3,1" fill="none" stroke="none"></rect><rect id="processd412ea26-0d03-4d29-a57d-931dfbbd39eb" x="40" y="950" height="50" width="90" rx="0" ry="0" fill="white" fill-opacity="1" stroke-opacity="1" stroke="black"></rect><text id="processd412ea26-0d03-4d29-a57d-931dfbbd39ebText" x="40" y="958.90625" fill="black" font-size="12" font-family="Arial" font-weight="normal" text-anchor="middle"><tspan x="85" dy="14.09375">Next target in </tspan><tspan x="85" dy="14.09375">direction </tspan></text><rect id="838cf504-5fba-4063-ac47-9872bbaadd19" x="35" y="945" height="60" width="100" stroke-width="1" stroke-dasharray="3,1" fill="none" stroke="none"></rect><rect id="terminatorc148a4b7-51b1-4ad6-b4f4-ebb4f8663964" x="450" y="535" height="40" width="110" rx="20" ry="20" fill="white" fill-opacity="1" stroke-opacity="1" stroke="black"></rect><text id="terminatorc148a4b7-51b1-4ad6-b4f4-ebb4f8663964Text" x="450" y="544.8125" fill="black" font-size="14" font-family="Arial" font-weight="bold" text-anchor="middle"><tspan x="505" dy="16.375">Random target </tspan></text><rect id="6c097c5f-76d6-4062-bbef-3108aa6e23a0" x="445" y="530" height="50" width="120" stroke-width="1" stroke-dasharray="3,1" fill="none" stroke="none"></rect><rect id="terminator5a4cab8d-6ba7-4b01-87d2-1ca21336f2b2" x="230" y="840" height="40" width="110" rx="20" ry="20" fill="white" fill-opacity="1" stroke-opacity="1" stroke="black"></rect><text id="terminator5a4cab8d-6ba7-4b01-87d2-1ca21336f2b2Text" x="230" y="841.625" fill="black" font-size="14" font-family="Arial" font-weight="bold" text-anchor="middle"><tspan x="285" dy="16.375">Calculated </tspan><tspan x="285" dy="16.375">target </tspan></text><rect id="6d19443c-581e-4c07-8408-b467f85dc11a" x="225" y="835" height="50" width="120" stroke-width="1" stroke-dasharray="3,1" fill="none" stroke="none"></rect><rect id="terminator02cedb89-82aa-4ab1-bd0e-aed18a3a6e42" x="30" y="745" height="40" width="110" rx="20" ry="20" fill="white" fill-opacity="1" stroke-opacity="1" stroke="black"></rect><text id="terminator02cedb89-82aa-4ab1-bd0e-aed18a3a6e42Text" x="30" y="746.625" fill="black" font-size="14" font-family="Arial" font-weight="bold" text-anchor="middle"><tspan x="85" dy="16.375">Calculated </tspan><tspan x="85" dy="16.375">target </tspan></text><rect id="f88e7628-8e42-4fa1-b5d8-39bcd97bf928" x="25" y="740" height="50" width="120" stroke-width="1" stroke-dasharray="3,1" fill="none" stroke="none"></rect><polygon id="decisiona78d958b-402f-4477-bcae-fd9a20b14d78" points=" 285,730  230,765  285,800  340,765  285,730 " fill="white" fill-opacity="1" stroke-opacity="1" stroke="black" fill-rule="nonzero" stroke-dasharray="4,2"></polygon><text id="decisiona78d958b-402f-4477-bcae-fd9a20b14d78Text" x="230" y="755.953125" fill="black" font-size="12" font-family="Arial" font-weight="normal" text-anchor="middle"><tspan x="285" dy="14.09375">Return? </tspan></text><rect id="909cf5ae-ca55-4e2d-b0d6-b530b12b3049" x="225" y="725" height="80" width="120" stroke-width="1" stroke-dasharray="3,1" fill="none" stroke="none"></rect><polygon id="decisionb0c7f902-4c92-4994-9245-d8390b005add" points=" 505,410  450,445  505,480  560,445  505,410 " fill="white" fill-opacity="1" stroke-opacity="1" stroke="black" fill-rule="nonzero" stroke-dasharray="4,2"></polygon><text id="decisionb0c7f902-4c92-4994-9245-d8390b005addText" x="450" y="435.953125" fill="black" font-size="12" font-family="Arial" font-weight="normal" text-anchor="middle"><tspan x="505" dy="14.09375">Return? </tspan></text><rect id="be5de4cd-bc8d-460e-996b-48f704168b0c" x="445" y="405" height="80" width="120" stroke-width="1" stroke-dasharray="3,1" fill="none" stroke="none"></rect><rect id="terminatoree87f82f-ff46-48b9-a568-c0f8aa2da304" x="600" y="840" height="40" width="110" rx="20" ry="20" fill="white" fill-opacity="1" stroke-opacity="1" stroke="black"></rect><text id="terminatoree87f82f-ff46-48b9-a568-c0f8aa2da304Text" x="600" y="849.8125" fill="black" font-size="14" font-family="Arial" font-weight="bold" text-anchor="middle"><tspan x="655" dy="16.375">None </tspan></text><rect id="ceca87d2-8f56-4a76-b7cf-8537e0689062" x="595" y="835" height="50" width="120" stroke-width="1" stroke-dasharray="3,1" fill="none" stroke="none"></rect><polyline id="line58c06afe-f54c-4d89-adc7-78ff92a4aa71" points=" 655,580  655,600  655,600  655,610  655,610  655,620  655,620  655,640 " fill="none" stroke="black" stroke-width="1"></polyline><polyline id="line58c06afe-f54c-4d89-adc7-78ff92a4aa71back" points=" 655,580  655,600  655,600  655,610  655,610  655,620  655,620  655,640 " fill="none" stroke="gray" stroke-width="15" opacity="0"></polyline><rect id="line58c06afe-f54c-4d89-adc7-78ff92a4aa71textback" x="655" y="600.953125" height="1" width="0" fill="none" stroke-width="0"></rect><text id="line58c06afe-f54c-4d89-adc7-78ff92a4aa71text" x="630" y="600.953125" fill="black" font-size="12" font-family="Arial" font-weight="normal" text-anchor="middle"><tspan x="655" dy="14.09375"> </tspan></text><polygon id="linehead8a8bc4cc-7cc3-429c-84cb-13f656fa7798" points=" 655,630  650,630  655,640  660,630  655,630 " fill="black" stroke="black" fill-rule="nonzero"></polygon><polyline id="line2d0439e2-da20-4c1e-979e-fa9a9f36da8c" points=" 560,665  580,665  580,665  585,665  585,665  590,665  590,665  610,665 " fill="none" stroke="black" stroke-width="1"></polyline><polyline id="line2d0439e2-da20-4c1e-979e-fa9a9f36da8cback" points=" 560,665  580,665  580,665  585,665  585,665  590,665  590,665  610,665 " fill="none" stroke="gray" stroke-width="15" opacity="0"></polyline><rect id="line2d0439e2-da20-4c1e-979e-fa9a9f36da8ctextback" x="585" y="655.953125" height="1" width="0" fill="none" stroke-width="0"></rect><text id="line2d0439e2-da20-4c1e-979e-fa9a9f36da8ctext" x="550" y="655.953125" fill="black" font-size="12" font-family="Arial" font-weight="normal" text-anchor="middle"><tspan x="585" dy="14.09375"> </tspan></text><polygon id="lineheadd4f031b8-b566-4e85-8176-e0859d45b998" points=" 570,665  570,660  560,665  570,670  570,665 " fill="black" stroke="black" fill-rule="nonzero"></polygon><polyline id="line727e22b8-aae2-4c24-98f1-202183c8d32b" points=" 330,555  350,555  350,555  390,555  390,665  430,665  430,665  450,665 " fill="none" stroke="black" stroke-width="1"></polyline><polyline id="line727e22b8-aae2-4c24-98f1-202183c8d32bback" points=" 330,555  350,555  350,555  390,555  390,665  430,665  430,665  450,665 " fill="none" stroke="gray" stroke-width="15" opacity="0"></polyline><rect id="line727e22b8-aae2-4c24-98f1-202183c8d32btextback" x="377.71095" y="545.953125" height="15.0938" width="24.5781" fill="white" stroke-width="0"></rect><text id="line727e22b8-aae2-4c24-98f1-202183c8d32btext" x="370" y="545.953125" fill="black" font-size="12" font-family="Arial" font-weight="normal" text-anchor="middle"><tspan x="390" dy="14.09375">True </tspan></text><polygon id="linehead09be8981-fd1a-4930-ab5d-d71c9da9c0bc" points=" 340,555  340,550  330,555  340,560  340,555 " fill="black" stroke="black" fill-rule="nonzero"></polygon><polyline id="linebe42499f-fe74-4b6e-b0a0-d4bb221a63d7" points=" 505,700  505,720  505,720  505,720  505,720  505,720  505,720  505,740 " fill="none" stroke="black" stroke-width="1"></polyline><polyline id="linebe42499f-fe74-4b6e-b0a0-d4bb221a63d7back" points=" 505,700  505,720  505,720  505,720  505,720  505,720  505,720  505,740 " fill="none" stroke="gray" stroke-width="15" opacity="0"></polyline><rect id="linebe42499f-fe74-4b6e-b0a0-d4bb221a63d7textback" x="505" y="710.953125" height="1" width="0" fill="none" stroke-width="0"></rect><text id="linebe42499f-fe74-4b6e-b0a0-d4bb221a63d7text" x="460" y="710.953125" fill="black" font-size="12" font-family="Arial" font-weight="normal" text-anchor="middle"><tspan x="505" dy="14.09375"> </tspan></text><polygon id="lineheada1e57c56-72eb-4183-ad71-ac1c886c9fb2" points=" 505,710  500,710  505,700  510,710  505,710 " fill="black" stroke="black" fill-rule="nonzero"></polygon><polyline id="lineb19c31b5-99b3-4710-b07a-7e9500497904" points=" 240,555  220,555  220,555  152.5,555  152.5,555  85,555  85,610  85,610  85,630 " fill="none" stroke="black" stroke-width="1"></polyline><polyline id="lineb19c31b5-99b3-4710-b07a-7e9500497904back" points=" 240,555  220,555  220,555  152.5,555  152.5,555  85,555  85,610  85,610  85,630 " fill="none" stroke="gray" stroke-width="15" opacity="0"></polyline><rect id="lineb19c31b5-99b3-4710-b07a-7e9500497904textback" x="152.5" y="545.953125" height="1" width="0" fill="none" stroke-width="0"></rect><text id="lineb19c31b5-99b3-4710-b07a-7e9500497904text" x="142.5" y="545.953125" fill="black" font-size="12" font-family="Arial" font-weight="normal" text-anchor="middle"><tspan x="152.5" dy="14.09375"> </tspan></text><polygon id="linehead2b67b737-20d5-4916-8b05-f6a05a6dc1bc" points=" 85,620  80,620  85,630  90,620  85,620 " fill="black" stroke="black" fill-rule="nonzero"></polygon><polyline id="line7d4c5242-1696-46ad-b658-8de5b26126e6" points=" 340,975  360,975  360,975  470,975  470,975  580,975  580,975  600,975 " fill="none" stroke="black" stroke-width="1"></polyline><polyline id="line7d4c5242-1696-46ad-b658-8de5b26126e6back" points=" 340,975  360,975  360,975  470,975  470,975  580,975  580,975  600,975 " fill="none" stroke="gray" stroke-width="15" opacity="0"></polyline><rect id="line7d4c5242-1696-46ad-b658-8de5b26126e6textback" x="440.1406" y="961.578125" height="24.8594" width="59.7188" fill="white" stroke-width="0"></rect><text id="line7d4c5242-1696-46ad-b658-8de5b26126e6text" x="175" y="961.578125" fill="black" font-size="10" font-family="Arial" font-weight="normal" text-anchor="middle" data-text="True
(attempts - 1)"><tspan x="470" dy="11.421875">True </tspan><tspan x="470" dy="11.421875">(attempts - 1) </tspan></text><polygon id="linehead63c901fe-f829-4140-a219-d04dcd2b4ef3" points=" 590,975  590,970  600,975  590,980  590,975 " fill="black" stroke="black" fill-rule="nonzero"></polygon><polyline id="linef2f77452-10c0-47c8-9cdc-d8bcd0321b9f" points=" 505,575  505,595  505,595  505,602.5  505,602.5  505,610  505,610  505,630 " fill="none" stroke="black" stroke-width="1"></polyline><polyline id="linef2f77452-10c0-47c8-9cdc-d8bcd0321b9fback" points=" 505,575  505,595  505,595  505,602.5  505,602.5  505,610  505,610  505,630 " fill="none" stroke="gray" stroke-width="15" opacity="0"></polyline><rect id="linef2f77452-10c0-47c8-9cdc-d8bcd0321b9ftextback" x="490.46095" y="593.453125" height="15.0938" width="29.0781" fill="white" stroke-width="0"></rect><text id="linef2f77452-10c0-47c8-9cdc-d8bcd0321b9ftext" x="460" y="593.453125" fill="black" font-size="12" font-family="Arial" font-weight="normal" text-anchor="middle"><tspan x="505" dy="14.09375">False </tspan></text><polygon id="linehead30e83967-6ded-45a8-ac2a-d4318fe8746f" points=" 505,585  500,585  505,575  510,585  505,585 " fill="black" stroke="black" fill-rule="nonzero"></polygon><polyline id="line15b377f1-2ff0-478a-9f95-ff54100d9faa" points=" 145,665  165,665  165,665  225,665  225,665  285,665  285,710  285,710  285,730 " fill="none" stroke="black" stroke-width="1" stroke-dasharray="4,2"></polyline><polyline id="line15b377f1-2ff0-478a-9f95-ff54100d9faaback" points=" 145,665  165,665  165,665  225,665  225,665  285,665  285,710  285,710  285,730 " fill="none" stroke="gray" stroke-width="15" opacity="0"></polyline><rect id="line15b377f1-2ff0-478a-9f95-ff54100d9faatextback" x="225" y="655.953125" height="1" width="0" fill="none" stroke-width="0"></rect><text id="line15b377f1-2ff0-478a-9f95-ff54100d9faatext" x="200" y="655.953125" fill="black" font-size="12" font-family="Arial" font-weight="normal" text-anchor="middle"><tspan x="225" dy="14.09375"> </tspan></text><polygon id="linehead22fe33ed-f28b-44f4-8033-e3f4ab980d12" points=" 285,720  280,720  285,730  290,720  285,720 " fill="black" stroke="black" fill-rule="nonzero"></polygon><polyline id="linecf38ea4b-98ab-440a-bef1-064130dbb3a2" points=" 340,765  360,765  360,765  400,765  400,765  440,765  440,765  460,765 " fill="none" stroke="black" stroke-width="1" stroke-dasharray="4,2"></polyline><polyline id="linecf38ea4b-98ab-440a-bef1-064130dbb3a2back" points=" 340,765  360,765  360,765  400,765  400,765  440,765  440,765  460,765 " fill="none" stroke="gray" stroke-width="15" opacity="0"></polyline><rect id="linecf38ea4b-98ab-440a-bef1-064130dbb3a2textback" x="385.46095" y="755.953125" height="15.0938" width="29.0781" fill="white" stroke-width="0"></rect><text id="linecf38ea4b-98ab-440a-bef1-064130dbb3a2text" x="365" y="755.953125" fill="black" font-size="12" font-family="Arial" font-weight="normal" text-anchor="middle"><tspan x="400" dy="14.09375">False </tspan></text><polygon id="linehead67bcbba5-8e3a-4ce5-8450-29a6b09ecd4b" points=" 450,765  450,760  460,765  450,770  450,765 " fill="black" stroke="black" fill-rule="nonzero"></polygon><polyline id="line123fddf7-6dba-43d3-b85c-913dd34132b5" points=" 140,765  160,765  160,765  185,765  185,765  210,765  210,765  230,765 " fill="none" stroke="black" stroke-width="1" stroke-dasharray="4,2"></polyline><polyline id="line123fddf7-6dba-43d3-b85c-913dd34132b5back" points=" 140,765  160,765  160,765  185,765  185,765  210,765  210,765  230,765 " fill="none" stroke="gray" stroke-width="15" opacity="0"></polyline><rect id="line123fddf7-6dba-43d3-b85c-913dd34132b5textback" x="172.71095" y="755.953125" height="15.0938" width="24.5781" fill="white" stroke-width="0"></rect><text id="line123fddf7-6dba-43d3-b85c-913dd34132b5text" x="160" y="755.953125" fill="black" font-size="12" font-family="Arial" font-weight="normal" text-anchor="middle"><tspan x="185" dy="14.09375">True </tspan></text><polygon id="linehead6e545097-c281-45f5-bbb1-4a93bb9a5ef7" points=" 150,765  150,760  140,765  150,770  150,765 " fill="black" stroke="black" fill-rule="nonzero"></polygon><polyline id="line65f7c6c6-c7f4-40ed-a94f-4d12035a44c3" points=" 340,445  360,445  360,445  395,445  395,445  430,445  430,445  450,445 " fill="none" stroke="black" stroke-width="1" stroke-dasharray="4,2"></polyline><polyline id="line65f7c6c6-c7f4-40ed-a94f-4d12035a44c3back" points=" 340,445  360,445  360,445  395,445  395,445  430,445  430,445  450,445 " fill="none" stroke="gray" stroke-width="15" opacity="0"></polyline><rect id="line65f7c6c6-c7f4-40ed-a94f-4d12035a44c3textback" x="382.71095" y="435.953125" height="15.0938" width="24.5781" fill="white" stroke-width="0"></rect><text id="line65f7c6c6-c7f4-40ed-a94f-4d12035a44c3text" x="352.5" y="435.953125" fill="black" font-size="12" font-family="Arial" font-weight="normal" text-anchor="middle"><tspan x="395" dy="14.09375">True </tspan></text><polygon id="linehead300bc46a-b525-421b-a3a4-5a76a3e56560" points=" 350,445  350,440  340,445  350,450  350,445 " fill="black" stroke="black" fill-rule="nonzero"></polygon><polyline id="linec2df9509-4e9d-459e-abb3-4142b3a37d69" points=" 560,445  580,445  580,445  585,445  585,445  590,445  590,445  610,445 " fill="none" stroke="black" stroke-width="1" stroke-dasharray="4,2"></polyline><polyline id="linec2df9509-4e9d-459e-abb3-4142b3a37d69back" points=" 560,445  580,445  580,445  585,445  585,445  590,445  590,445  610,445 " fill="none" stroke="gray" stroke-width="15" opacity="0"></polyline><rect id="linec2df9509-4e9d-459e-abb3-4142b3a37d69textback" x="585" y="435.953125" height="1" width="0" fill="none" stroke-width="0"></rect><text id="linec2df9509-4e9d-459e-abb3-4142b3a37d69text" x="542.5" y="435.953125" fill="black" font-size="12" font-family="Arial" font-weight="normal" text-anchor="middle"><tspan x="585" dy="14.09375"> </tspan></text><polygon id="lineheadb5799df0-b093-41bb-bc46-35bd3ad368c3" points=" 570,445  570,440  560,445  570,450  570,445 " fill="black" stroke="black" fill-rule="nonzero"></polygon><polyline id="line117c79b6-3a7a-4317-af0a-87e04af455dd" points=" 85,885  85,905  85,905  85,917.5  85,917.5  85,930  85,930  85,950 " fill="none" stroke="black" stroke-width="1"></polyline><polyline id="line117c79b6-3a7a-4317-af0a-87e04af455ddback" points=" 85,885  85,905  85,905  85,917.5  85,917.5  85,930  85,930  85,950 " fill="none" stroke="gray" stroke-width="15" opacity="0"></polyline><rect id="line117c79b6-3a7a-4317-af0a-87e04af455ddtextback" x="53.78905" y="908.453125" height="15.0938" width="62.4219" fill="white" stroke-width="0"></rect><text id="line117c79b6-3a7a-4317-af0a-87e04af455ddtext" x="60" y="908.453125" fill="black" font-size="12" font-family="Arial" font-weight="normal" text-anchor="middle"><tspan x="85" dy="14.09375">attempts=4 </tspan></text><polygon id="linehead4644a6c7-320f-4e7e-b705-0e4c60bf68b3" points=" 85,940  80,940  85,950  90,940  85,940 " fill="black" stroke="black" fill-rule="nonzero"></polygon><polyline id="line645e2955-9535-4977-9706-e93a97fd0e2a" points=" 130,975  150,975  150,975  180,975  180,975  210,975  210,975  230,975 " fill="none" stroke="black" stroke-width="1"></polyline><polyline id="line645e2955-9535-4977-9706-e93a97fd0e2aback" points=" 130,975  150,975  150,975  180,975  180,975  210,975  210,975  230,975 " fill="none" stroke="gray" stroke-width="15" opacity="0"></polyline><rect id="line645e2955-9535-4977-9706-e93a97fd0e2atextback" x="180" y="965.953125" height="1" width="0" fill="none" stroke-width="0"></rect><text id="line645e2955-9535-4977-9706-e93a97fd0e2atext" x="155" y="965.953125" fill="black" font-size="12" font-family="Arial" font-weight="normal" text-anchor="middle"><tspan x="180" dy="14.09375"> </tspan></text><polygon id="lineheade724244c-85d6-41e3-89e2-0b16af36ba45" points=" 220,975  220,970  230,975  220,980  220,975 " fill="black" stroke="black" fill-rule="nonzero"></polygon><polyline id="line6138475c-a342-4502-ad4b-72e1609f75f6" points=" 285,880  285,900  285,900  285,910  285,910  285,920  285,920  285,940 " fill="none" stroke="black" stroke-width="1"></polyline><polyline id="line6138475c-a342-4502-ad4b-72e1609f75f6back" points=" 285,880  285,900  285,900  285,910  285,910  285,920  285,920  285,940 " fill="none" stroke="gray" stroke-width="15" opacity="0"></polyline><rect id="line6138475c-a342-4502-ad4b-72e1609f75f6textback" x="270.46095" y="900.953125" height="15.0938" width="29.0781" fill="white" stroke-width="0"></rect><text id="line6138475c-a342-4502-ad4b-72e1609f75f6text" x="260" y="900.953125" fill="black" font-size="12" font-family="Arial" font-weight="normal" text-anchor="middle"><tspan x="285" dy="14.09375">False </tspan></text><polygon id="linehead62918aba-ece6-4263-aad5-02007b4cbe1c" points=" 285,890  280,890  285,880  290,890  285,890 " fill="black" stroke="black" fill-rule="nonzero"></polygon><polyline id="line3e5a8342-cf04-4847-b9a4-e892bfef0183" points=" 655,1010  655,1030  655,1030  655,1047.5  655,1047.5  655,1065  570,1065  570,1065  550,1065 " fill="none" stroke="black" stroke-width="1"></polyline><polyline id="line3e5a8342-cf04-4847-b9a4-e892bfef0183back" points=" 655,1010  655,1030  655,1030  655,1047.5  655,1047.5  655,1065  570,1065  570,1065  550,1065 " fill="none" stroke="gray" stroke-width="15" opacity="0"></polyline><rect id="line3e5a8342-cf04-4847-b9a4-e892bfef0183textback" x="642.71095" y="1038.453125" height="15.0938" width="24.5781" fill="white" stroke-width="0"></rect><text id="line3e5a8342-cf04-4847-b9a4-e892bfef0183text" x="460" y="1038.453125" fill="black" font-size="12" font-family="Arial" font-weight="normal" text-anchor="middle"><tspan x="655" dy="14.09375">True </tspan></text><polygon id="linehead191c2a4b-869b-4a2b-88e5-114f1073e1a8" points=" 560,1065  560,1060  550,1065  560,1070  560,1065 " fill="black" stroke="black" fill-rule="nonzero"></polygon><polyline id="line64eb88fd-852b-46ef-897c-9832d58683f9" points=" 85,1000  85,1020  85,1020  85,1042.5  85,1042.5  85,1065  440,1065  440,1065  460,1065 " fill="none" stroke="black" stroke-width="1"></polyline><polyline id="line64eb88fd-852b-46ef-897c-9832d58683f9back" points=" 85,1000  85,1020  85,1020  85,1042.5  85,1042.5  85,1065  440,1065  440,1065  460,1065 " fill="none" stroke="gray" stroke-width="15" opacity="0"></polyline><rect id="line64eb88fd-852b-46ef-897c-9832d58683f9textback" x="85" y="1033.453125" height="1" width="0" fill="none" stroke-width="0"></rect><text id="line64eb88fd-852b-46ef-897c-9832d58683f9text" x="60" y="1033.453125" fill="black" font-size="12" font-family="Arial" font-weight="normal" text-anchor="middle"><tspan x="85" dy="14.09375"> </tspan></text><polygon id="linehead25f84ab8-3afe-4139-bc17-d6913bc6584d" points=" 85,1010  80,1010  85,1000  90,1010  85,1010 " fill="black" stroke="black" fill-rule="nonzero"></polygon><polyline id="line943f353b-b7dc-441c-a5bc-69d582d0ba58" points=" 655,880  655,900  655,900  655,910  655,910  655,920  655,920  655,940 " fill="none" stroke="black" stroke-width="1"></polyline><polyline id="line943f353b-b7dc-441c-a5bc-69d582d0ba58back" points=" 655,880  655,900  655,900  655,910  655,910  655,920  655,920  655,940 " fill="none" stroke="gray" stroke-width="15" opacity="0"></polyline><rect id="line943f353b-b7dc-441c-a5bc-69d582d0ba58textback" x="640.46095" y="900.953125" height="15.0938" width="29.0781" fill="white" stroke-width="0"></rect><text id="line943f353b-b7dc-441c-a5bc-69d582d0ba58text" x="460" y="900.953125" fill="black" font-size="12" font-family="Arial" font-weight="normal" text-anchor="middle"><tspan x="655" dy="14.09375">False </tspan></text><polygon id="lineheadacb71b19-6d91-42a4-92a1-f06697a70097" points=" 655,890  650,890  655,880  660,890  655,890 " fill="black" stroke="black" fill-rule="nonzero"></polygon><polyline id="line43d276ec-124d-42b9-bf11-f52d3a6cc17c" points=" 285,90  285,110  285,110  285,110  285,100  285,100  285,100  285,100  285,120 " fill="none" stroke="black" stroke-width="1"></polyline><polyline id="line43d276ec-124d-42b9-bf11-f52d3a6cc17cback" points=" 285,90  285,110  285,110  285,110  285,100  285,100  285,100  285,100  285,120 " fill="none" stroke="gray" stroke-width="15" opacity="0"></polyline><rect id="line43d276ec-124d-42b9-bf11-f52d3a6cc17ctextback" x="285" y="90.953125" height="1" width="0" fill="none" stroke-width="0"></rect><text id="line43d276ec-124d-42b9-bf11-f52d3a6cc17ctext" x="60" y="90.953125" fill="black" font-size="12" font-family="Arial" font-weight="normal" text-anchor="middle"><tspan x="285" dy="14.09375"> </tspan></text><polygon id="linehead54459f06-1e0f-4869-9bcb-ae07b0e6649a" points=" 285,110  280,110  285,120  290,110  285,110 " fill="black" stroke="black" fill-rule="nonzero"></polygon><polyline id="line6cc6de61-43bb-4a4c-858d-7a3ad52423c0" points=" 230,155  210,155  210,155  147.5,155  147.5,155  85,155  85,245  85,245  85,265 " fill="none" stroke="black" stroke-width="1"></polyline><polyline id="line6cc6de61-43bb-4a4c-858d-7a3ad52423c0back" points=" 230,155  210,155  210,155  147.5,155  147.5,155  85,155  85,245  85,245  85,265 " fill="none" stroke="gray" stroke-width="15" opacity="0"></polyline><rect id="line6cc6de61-43bb-4a4c-858d-7a3ad52423c0textback" x="134.6953" y="145.953125" height="15.0938" width="25.6094" fill="white" stroke-width="0"></rect><text id="line6cc6de61-43bb-4a4c-858d-7a3ad52423c0text" x="122.5" y="145.953125" fill="black" font-size="12" font-family="Arial" font-weight="normal" text-anchor="middle"><tspan x="147.5" dy="14.09375">Easy </tspan></text><polygon id="lineheadcfc80188-6a18-4289-8a0a-969be9deb838" points=" 85,255  80,255  85,265  90,255  85,255 " fill="black" stroke="black" fill-rule="nonzero"></polygon><polyline id="line443b946e-2deb-4111-9e10-7655402a7109" points=" 285,190  285,210  285,210  285,220  505,220  505,230  505,230  505,250 " fill="none" stroke="black" stroke-width="1"></polyline><polyline id="line443b946e-2deb-4111-9e10-7655402a7109back" points=" 285,190  285,210  285,210  285,220  505,220  505,230  505,230  505,250 " fill="none" stroke="gray" stroke-width="15" opacity="0"></polyline><rect id="line443b946e-2deb-4111-9e10-7655402a7109textback" x="264.96875" y="210.953125" height="15.0938" width="40.0625" fill="white" stroke-width="0"></rect><text id="line443b946e-2deb-4111-9e10-7655402a7109text" x="260" y="210.953125" fill="black" font-size="12" font-family="Arial" font-weight="normal" text-anchor="middle"><tspan x="285" dy="14.09375">Normal </tspan></text><polygon id="linehead6c274660-2b7d-4d61-9bb1-bc828abb2876" points=" 505,240  500,240  505,250  510,240  505,240 " fill="black" stroke="black" fill-rule="nonzero"></polygon><polyline id="lined99af2d0-0986-4910-9c1d-c1633d01bdd1" points=" 140,285  160,285  160,285  295,285  295,285  430,285  430,285  450,285 " fill="none" stroke="black" stroke-width="1"></polyline><polyline id="lined99af2d0-0986-4910-9c1d-c1633d01bdd1back" points=" 140,285  160,285  160,285  295,285  295,285  430,285  430,285  450,285 " fill="none" stroke="gray" stroke-width="15" opacity="0"></polyline><rect id="lined99af2d0-0986-4910-9c1d-c1633d01bdd1textback" x="280.46095" y="275.953125" height="15.0938" width="29.0781" fill="white" stroke-width="0"></rect><text id="lined99af2d0-0986-4910-9c1d-c1633d01bdd1text" x="270" y="275.953125" fill="black" font-size="12" font-family="Arial" font-weight="normal" text-anchor="middle"><tspan x="295" dy="14.09375">False </tspan></text><polygon id="lineheada319007f-cc5b-4e78-8aea-10a88536316a" points=" 150,285  150,280  140,285  150,290  150,285 " fill="black" stroke="black" fill-rule="nonzero"></polygon><polyline id="linebe833b27-49a9-4226-b359-530ab6d7c137" points=" 505,320  505,340  505,340  505,365  505,365  505,390  505,390  505,410 " fill="none" stroke="black" stroke-width="1" stroke-dasharray="4,2"></polyline><polyline id="linebe833b27-49a9-4226-b359-530ab6d7c137back" points=" 505,320  505,340  505,340  505,365  505,365  505,390  505,390  505,410 " fill="none" stroke="gray" stroke-width="15" opacity="0"></polyline><rect id="linebe833b27-49a9-4226-b359-530ab6d7c137textback" x="461.375" y="341.859375" height="45.2814" width="87.25" fill="white" stroke-width="0"></rect><text id="linebe833b27-49a9-4226-b359-530ab6d7c137text" x="480" y="341.859375" fill="black" font-size="12" font-family="Arial" font-weight="normal" text-anchor="middle" data-text="False
(target_locked = False)"><tspan x="505" dy="14.09375">False </tspan><tspan x="505" dy="14.09375">(target_locked = </tspan><tspan x="505" dy="14.09375">False) </tspan></text><polygon id="lineheadf2d00a24-ce74-4df9-a3f8-5d2f53f385d7" points=" 505,330  500,330  505,320  510,330  505,330 " fill="black" stroke="black" fill-rule="nonzero"></polygon><polyline id="line9b077449-a8a1-4a15-a37b-5b89584abd10" points=" 560,285  580,285  580,285  617.5,285  617.5,285  655,285  655,390  655,390  655,410 " fill="none" stroke="black" stroke-width="1"></polyline><polyline id="line9b077449-a8a1-4a15-a37b-5b89584abd10back" points=" 560,285  580,285  580,285  617.5,285  617.5,285  655,285  655,390  655,390  655,410 " fill="none" stroke="gray" stroke-width="15" opacity="0"></polyline><rect id="line9b077449-a8a1-4a15-a37b-5b89584abd10textback" x="605.21095" y="275.953125" height="15.0938" width="24.5781" fill="white" stroke-width="0"></rect><text id="line9b077449-a8a1-4a15-a37b-5b89584abd10text" x="592.5" y="275.953125" fill="black" font-size="12" font-family="Arial" font-weight="normal" text-anchor="middle"><tspan x="617.5" dy="14.09375">True </tspan></text><polygon id="linehead5fa5bba3-58b4-46be-b0f0-4529acbb3f53" points=" 655,400  650,400  655,410  660,400  655,400 " fill="black" stroke="black" fill-rule="nonzero"></polygon><polyline id="line20fe5349-2a50-485b-b973-266017416a95" points=" 340,155  360,155  360,155  507.5,155  507.5,155  655,155  655,390  655,390  655,410 " fill="none" stroke="black" stroke-width="1"></polyline><polyline id="line20fe5349-2a50-485b-b973-266017416a95back" points=" 340,155  360,155  360,155  507.5,155  507.5,155  655,155  655,390  655,390  655,410 " fill="none" stroke="gray" stroke-width="15" opacity="0"></polyline><rect id="line20fe5349-2a50-485b-b973-266017416a95textback" x="494.33595" y="145.953125" height="15.0938" width="26.3281" fill="white" stroke-width="0"></rect><text id="line20fe5349-2a50-485b-b973-266017416a95text" x="482.5" y="145.953125" fill="black" font-size="12" font-family="Arial" font-weight="normal" text-anchor="middle"><tspan x="507.5" dy="14.09375">Hard </tspan></text><polygon id="linehead21397edb-2c7a-4f52-852b-49ced2f1e525" points=" 655,400  650,400  655,410  660,400  655,400 " fill="black" stroke="black" fill-rule="nonzero"></polygon><path id="drawpath6d33761b-29a8-40a4-82c0-9bb1b3cf600d" d="M 618 105 c " fill="none" stroke="black" stroke-width="1"></path><path id="drawpath6d33761b-29a8-40a4-82c0-9bb1b3cf600dback" d="M 618 105 c " fill="none" stroke="gray" stroke-width="15" opacity="0"></path><path id="drawpathcf462264-9549-4de8-9837-5bd9bb15daaf" d="M 624 98 c " fill="none" stroke="black" stroke-width="1"></path><path id="drawpathcf462264-9549-4de8-9837-5bd9bb15daafback" d="M 624 98 c " fill="none" stroke="gray" stroke-width="15" opacity="0"></path><path id="drawpath80a3ada4-0760-4dac-afed-32ac71278da1" d="" fill="none" stroke="black" stroke-width="1"></path><path id="drawpath80a3ada4-0760-4dac-afed-32ac71278da1back" d="" fill="none" stroke="gray" stroke-width="15" opacity="0"></path><text x="565" y="1090" fill="#252526" font-size="14" font-family="Arial" font-weight="bold" opacity="1">Flowdia Diagrams Lite Version</text></svg>