<svg xmlns="http://www.w3.org/2000/svg" xmlns:xlink="http://www.w3.org/1999/xlink" width="785" height="1110"  style="background-color:white;" >
                                            <defs id="canvasGridDefs">
                                                <pattern id="smallGrid" width="5" height="5" patternUnits="userSpaceOnUse">
                                                    <path id="smallGridPath" d="M 5 0 L 0 0 0 5" fill="none" stroke="lightgray" stroke-width="0.5"></path>
                                                </pattern>
                                                <pattern id="watermarkGrid" width="220" height="80" patternUnits="userSpaceOnUse">
                                                    <rect id="watermarkGridPath0" x="0" y="0" width="220" height="80" fill="white"></rect>
                                                    <text x="60" y="55" transform="rotate(-30 90,90)" fill="#eeeeee" font-family="Arial" font-size="16">Flowdia Diagrams </text>
                                                </pattern>

                                            </defs>
                                            <rect id="canvasGrid" width="100%" height="100%" fill="white"></rect>
                                            <rect id="shapeSelectGrid" width="0" height="0" x="0" y="0" fill="gray" stroke="gray" fill-opacity="0.2" stroke-width="1"></rect>
                                            <circle id="selectionMarker" cx="0" cy="0" r="50" fill="darkslateblue" stroke="darkslateblue" fill-opacity="0.2" stroke-width="0" style="display:none;"></circle>
                                        <rect id="terminator949c51f0-cd32-4757-9914-669f21c9a6cd" x="640" y="95" height="40" width="90" rx="20" ry="20" fill="rgb(255, 255, 255)" fill-opacity="1" stroke-opacity="1" stroke="rgb(199, 0, 0)"></rect><text id="terminator949c51f0-cd32-4757-9914-669f21c9a6cdText" x="640" y="105.953125" fill="black" font-size="12" font-family="Arial" font-weight="normal" text-anchor="middle"><tspan x="685" dy="14.09375">Exit loop </tspan></text><rect id="de5385d8-62a6-41ab-8f2c-8f8541a6d06c" x="635" y="90" height="50" width="100" stroke-width="1" stroke-dasharray="3,1" fill="none" stroke="none"></rect><polygon id="decision7509933a-c9dd-4bf4-ba08-d898c3397956" points=" 545,240  500,275  545,310  590,275  545,240 " fill="white" fill-opacity="1" stroke-opacity="1" stroke="black" fill-rule="nonzero"></polygon><text id="decision7509933a-c9dd-4bf4-ba08-d898c3397956Text" x="500" y="265.953125" fill="black" font-size="12" font-family="Arial" font-weight="normal" text-anchor="middle"><tspan x="545" dy="14.09375">Game state? </tspan></text><rect id="5c544eb2-7d3e-4c3b-9088-8bb02febb489" x="495" y="235" height="80" width="100" stroke-width="1" stroke-dasharray="3,1" fill="none" stroke="none"></rect><rect id="processc6a46f87-1b96-4e83-9340-d14b13642b8b" x="500" y="90" height="50" width="90" rx="0" ry="0" fill="rgb(157, 187, 97)" fill-opacity="1" stroke-opacity="1" stroke="rgb(80,99,42)"></rect><text id="processc6a46f87-1b96-4e83-9340-d14b13642b8bText" x="500" y="98.90625" fill="black" font-size="12" font-family="Arial" font-weight="normal" text-anchor="middle"><tspan x="545" dy="14.09375">game_state = </tspan><tspan x="545" dy="14.09375">SETUP </tspan></text><rect id="122d7410-1df9-4059-87a8-d63aaffebb2a" x="495" y="85" height="60" width="100" stroke-width="1" stroke-dasharray="3,1" fill="none" stroke="none"></rect><polygon id="decisiond1177aee-7755-457d-9a5b-12477429b225" points=" 95,240  50,275  95,310  140,275  95,240 " fill="white" fill-opacity="1" stroke-opacity="1" stroke="rgb(0, 128, 0)" fill-rule="nonzero"></polygon><text id="decisiond1177aee-7755-457d-9a5b-12477429b225Text" x="50" y="258.90625" fill="black" font-size="12" font-family="Arial" font-weight="normal" text-anchor="middle"><tspan x="95" dy="14.09375">All ships </tspan><tspan x="95" dy="14.09375">placed? </tspan></text><rect id="5a29b55e-2b76-4b2f-9017-a1a55d1457a0" x="45" y="235" height="80" width="100" stroke-width="1" stroke-dasharray="3,1" fill="none" stroke="none"></rect><rect id="alternateProcess8911a520-26e1-4c52-af07-3d3ff27a272c" x="210" y="160" height="50" width="90" rx="10" ry="10" fill="white" fill-opacity="1" stroke-opacity="1" stroke="rgb(0, 128, 0)"></rect><text id="alternateProcess8911a520-26e1-4c52-af07-3d3ff27a272cText" x="210" y="175.953125" fill="black" font-size="12" font-family="Arial" font-weight="normal" text-anchor="middle"><tspan x="255" dy="14.09375">Place ship </tspan></text><rect id="b9c47a1d-7f42-43ed-8936-12d03f01eefe" x="205" y="155" height="60" width="100" stroke-width="1" stroke-dasharray="3,1" fill="none" stroke="none"></rect><rect id="alternateProcessb252c10e-fc4c-4b63-8ad4-b85cd2321fe1" x="210" y="90" height="50" width="90" rx="10" ry="10" fill="white" fill-opacity="1" stroke-opacity="1" stroke="rgb(0, 128, 0)"></rect><text id="alternateProcessb252c10e-fc4c-4b63-8ad4-b85cd2321fe1Text" x="210" y="98.90625" fill="black" font-size="12" font-family="Arial" font-weight="normal" text-anchor="middle"><tspan x="255" dy="14.09375">Place all ships </tspan><tspan x="255" dy="14.09375">randomly </tspan></text><rect id="9a5869f4-d117-4e7a-9069-3884e57a2eb1" x="205" y="85" height="60" width="100" stroke-width="1" stroke-dasharray="3,1" fill="none" stroke="none"></rect><rect id="processd95ee8b9-2f73-475b-8c8b-e41596ad5eb5" x="50" y="390" height="50" width="90" rx="0" ry="0" fill="rgb(183, 221, 232)" fill-opacity="1" stroke-opacity="1" stroke="rgb(32, 88, 103)"></rect><text id="processd95ee8b9-2f73-475b-8c8b-e41596ad5eb5Text" x="50" y="398.90625" fill="black" font-size="12" font-family="Arial" font-weight="normal" text-anchor="middle"><tspan x="95" dy="14.09375">game_state = </tspan><tspan x="95" dy="14.09375">PLAY </tspan></text><rect id="93a290fb-cd33-4e1a-b1c8-2bbe2367c2ce" x="45" y="385" height="60" width="100" stroke-width="1" stroke-dasharray="3,1" fill="none" stroke="none"></rect><polygon id="decision66e2be3a-84de-4bba-943b-0328e414ba5a" points=" 415,460  370,495  415,530  460,495  415,460 " fill="white" fill-opacity="1" stroke-opacity="1" stroke="rgb(234, 112, 13)" fill-rule="nonzero"></polygon><text id="decision66e2be3a-84de-4bba-943b-0328e414ba5aText" x="370" y="485.953125" fill="black" font-size="12" font-family="Arial" font-weight="normal" text-anchor="middle"><tspan x="415" dy="14.09375">Victory? </tspan></text><rect id="ba5e6f3b-fad7-43c6-834c-2f90413f79c6" x="365" y="455" height="80" width="100" stroke-width="1" stroke-dasharray="3,1" fill="none" stroke="none"></rect><polygon id="offPageConn6cd16cdc-672b-463c-8a98-5d591cf76df3" points=" 50,470  50,505  95,520  140,505  140,470  50,470 " fill="white" fill-opacity="1" stroke-opacity="1" stroke="rgb(75, 172, 198)" fill-rule="nonzero"></polygon><text id="offPageConn6cd16cdc-672b-463c-8a98-5d591cf76df3Text" x="50" y="485.953125" fill="black" font-size="12" font-family="Arial" font-weight="normal" text-anchor="middle"><tspan x="95" dy="14.09375">Player action </tspan></text><rect id="ead73721-00de-4329-be74-3ad920fb472c" x="45" y="465" height="60" width="100" stroke-width="1" stroke-dasharray="3,1" fill="none" stroke="none"></rect><polygon id="decisionea921be9-903c-417b-a397-fa86a48298be" points=" 95,600  50,635  95,670  140,635  95,600 " fill="white" fill-opacity="1" stroke-opacity="1" stroke="rgb(75, 172, 198)" fill-rule="nonzero"></polygon><text id="decisionea921be9-903c-417b-a397-fa86a48298beText" x="50" y="625.953125" fill="black" font-size="12" font-family="Arial" font-weight="normal" text-anchor="middle"><tspan x="95" dy="14.09375">Successful? </tspan></text><rect id="f81d2212-7366-4f04-bd4c-53ea9723a271" x="45" y="595" height="80" width="100" stroke-width="1" stroke-dasharray="3,1" fill="none" stroke="none"></rect><polygon id="offPageConn773f4057-5d96-44cc-b8df-4e7c9d19c00c" points=" 370,740  370,775  415,790  460,775  460,740  370,740 " fill="white" fill-opacity="1" stroke-opacity="1" stroke="rgb(234, 112, 13)" fill-rule="nonzero"></polygon><text id="offPageConn773f4057-5d96-44cc-b8df-4e7c9d19c00cText" x="370" y="755.953125" fill="black" font-size="12" font-family="Arial" font-weight="normal" text-anchor="middle"><tspan x="415" dy="14.09375">Comp action </tspan></text><rect id="753bd1fc-9375-4ddc-87c1-0cb021f44734" x="365" y="735" height="60" width="100" stroke-width="1" stroke-dasharray="3,1" fill="none" stroke="none"></rect><polygon id="decisioneb083083-c859-462e-826a-5a7698ccd06c" points=" 415,600  370,635  415,670  460,635  415,600 " fill="white" fill-opacity="1" stroke-opacity="1" stroke="rgb(234, 112, 13)" fill-rule="nonzero"></polygon><text id="decisioneb083083-c859-462e-826a-5a7698ccd06cText" x="370" y="625.953125" fill="black" font-size="12" font-family="Arial" font-weight="normal" text-anchor="middle"><tspan x="415" dy="14.09375">Successful? </tspan></text><rect id="d15fa08a-a48e-4538-a923-1b1b41b2f6f3" x="365" y="595" height="80" width="100" stroke-width="1" stroke-dasharray="3,1" fill="none" stroke="none"></rect><polygon id="decisionca38c87e-9dea-4cb8-88bd-061ee6402bc7" points=" 95,730  50,765  95,800  140,765  95,730 " fill="white" fill-opacity="1" stroke-opacity="1" stroke="rgb(75, 172, 198)" fill-rule="nonzero"></polygon><text id="decisionca38c87e-9dea-4cb8-88bd-061ee6402bc7Text" x="50" y="755.953125" fill="black" font-size="12" font-family="Arial" font-weight="normal" text-anchor="middle"><tspan x="95" dy="14.09375">Victory? </tspan></text><rect id="f83a60fe-2fa2-4098-a79b-e0f3980b9b27" x="45" y="725" height="80" width="100" stroke-width="1" stroke-dasharray="3,1" fill="none" stroke="none"></rect><polygon id="decision481c0f8d-247f-4b68-bb74-8b7c9b027e32" points=" 255,600  210,635  255,670  300,635  255,600 " fill="white" fill-opacity="1" stroke-opacity="1" stroke="black" fill-rule="nonzero"></polygon><text id="decision481c0f8d-247f-4b68-bb74-8b7c9b027e32Text" x="210" y="625.953125" fill="black" font-size="12" font-family="Arial" font-weight="normal" text-anchor="middle"><tspan x="255" dy="14.09375">Game state? </tspan></text><rect id="61af2d66-ec8a-4177-824f-b8984a9cd567" x="205" y="595" height="80" width="100" stroke-width="1" stroke-dasharray="3,1" fill="none" stroke="none"></rect><rect id="process065eabd3-86b5-4f10-9073-6e5e33ce1753" x="370" y="820" height="50" width="90" rx="0" ry="0" fill="rgb(245, 157, 86)" fill-opacity="1" stroke-opacity="1" stroke="rgb(156,74,9)"></rect><text id="process065eabd3-86b5-4f10-9073-6e5e33ce1753Text" x="370" y="828.90625" fill="black" font-size="12" font-family="Arial" font-weight="normal" text-anchor="middle"><tspan x="415" dy="14.09375">game_state = </tspan><tspan x="415" dy="14.09375">COMP </tspan></text><rect id="2c5b4049-1680-44b7-a164-5b6e77b01db6" x="365" y="815" height="60" width="100" stroke-width="1" stroke-dasharray="3,1" fill="none" stroke="none"></rect><rect id="process1369db67-0533-4ba0-96d5-07f3a05b3cad" x="640" y="470" height="50" width="90" rx="0" ry="0" fill="rgb(251, 74, 74)" fill-opacity="1" stroke-opacity="1" stroke="rgb(97,38,33)"></rect><text id="process1369db67-0533-4ba0-96d5-07f3a05b3cadText" x="640" y="478.90625" fill="black" font-size="12" font-family="Arial" font-weight="normal" text-anchor="middle"><tspan x="685" dy="14.09375">game_state = </tspan><tspan x="685" dy="14.09375">QUIT </tspan></text><rect id="ca513b40-17dc-45e0-a346-a77a36ebe9b3" x="635" y="465" height="60" width="100" stroke-width="1" stroke-dasharray="3,1" fill="none" stroke="none"></rect><polygon id="manualInputbbfb88f3-8595-45fa-a2e1-73f5d5d3ea36" points=" 500,400  500,440  590,440  590,390  500,400 " fill="white" fill-opacity="1" stroke-opacity="1" stroke="black" fill-rule="nonzero"></polygon><text id="manualInputbbfb88f3-8595-45fa-a2e1-73f5d5d3ea36Text" x="500" y="405.953125" fill="black" font-size="12" font-family="Arial" font-weight="normal" text-anchor="middle"><tspan x="545" dy="14.09375">Close window </tspan></text><rect id="9ee27251-5222-482c-994d-8798b5ff549b" x="495" y="385" height="60" width="100" stroke-width="1" stroke-dasharray="3,1" fill="none" stroke="none"></rect><rect id="process8568d870-f145-460b-9520-d9e97bca55fd" x="500" y="990" height="50" width="90" rx="0" ry="0" fill="rgb(255, 255, 255)" fill-opacity="1" stroke-opacity="1" stroke="rgb(255, 217, 101)"></rect><text id="process8568d870-f145-460b-9520-d9e97bca55fdText" x="500" y="1005.953125" fill="black" font-size="12" font-family="Arial" font-weight="normal" text-anchor="middle"><tspan x="545" dy="14.09375">Show results </tspan></text><rect id="6488448a-4db0-48a7-970a-ea2f200d313d" x="495" y="985" height="60" width="100" stroke-width="1" stroke-dasharray="3,1" fill="none" stroke="none"></rect><polygon id="decisiondd757f40-1497-4f8a-abc5-3bb55feb2411" points=" 685,810  640,845  685,880  730,845  685,810 " fill="white" fill-opacity="1" stroke-opacity="1" stroke="rgb(255, 217, 101)" fill-rule="nonzero"></polygon><text id="decisiondd757f40-1497-4f8a-abc5-3bb55feb2411Text" x="640" y="835.953125" fill="black" font-size="12" font-family="Arial" font-weight="normal" text-anchor="middle"><tspan x="685" dy="14.09375">Replay? </tspan></text><rect id="ab0f2373-4be3-4281-8148-be09ee29c790" x="635" y="805" height="80" width="100" stroke-width="1" stroke-dasharray="3,1" fill="none" stroke="none"></rect><rect id="process1bef3276-0917-4be5-9ca7-6ab45791805b" x="640" y="610" height="50" width="90" rx="0" ry="0" fill="rgb(157, 187, 97)" fill-opacity="1" stroke-opacity="1" stroke="rgb(80,99,42)"></rect><text id="process1bef3276-0917-4be5-9ca7-6ab45791805bText" x="640" y="618.90625" fill="black" font-size="12" font-family="Arial" font-weight="normal" text-anchor="middle"><tspan x="685" dy="14.09375">game_state = </tspan><tspan x="685" dy="14.09375">SETUP </tspan></text><rect id="561b4889-72fd-4238-9574-5cd094c5203a" x="635" y="605" height="60" width="100" stroke-width="1" stroke-dasharray="3,1" fill="none" stroke="none"></rect><rect id="processaedb47d7-067f-4b27-8528-3544a05ebdbf" x="500" y="160" height="50" width="90" rx="0" ry="0" fill="rgb(255, 255, 255)" fill-opacity="1" stroke-opacity="1" stroke="rgb(0, 128, 0)"></rect><text id="processaedb47d7-067f-4b27-8528-3544a05ebdbfText" x="500" y="175.953125" fill="black" font-size="12" font-family="Arial" font-weight="normal" text-anchor="middle"><tspan x="545" dy="14.09375">Initialize loop </tspan></text><rect id="fb04c0b7-f877-4661-8123-0c4d5b70980f" x="495" y="155" height="60" width="100" stroke-width="1" stroke-dasharray="3,1" fill="none" stroke="none"></rect><rect id="processe2fda4b1-4450-43c2-a1b9-fe5d4f6c8557" x="500" y="900" height="50" width="90" rx="0" ry="0" fill="rgb(255, 255, 0)" fill-opacity="1" stroke-opacity="1" stroke="black"></rect><text id="processe2fda4b1-4450-43c2-a1b9-fe5d4f6c8557Text" x="500" y="908.90625" fill="black" font-size="12" font-family="Arial" font-weight="normal" text-anchor="middle"><tspan x="545" dy="14.09375">game_state = </tspan><tspan x="545" dy="14.09375">END </tspan></text><rect id="d5be03f4-7e29-44ce-bf92-012eb64c274d" x="495" y="895" height="60" width="100" stroke-width="1" stroke-dasharray="3,1" fill="none" stroke="none"></rect><rect id="process6eec6ca6-497f-4f0e-bff2-acd908923385" x="370" y="20" height="50" width="90" rx="0" ry="0" fill="rgb(255, 255, 0)" fill-opacity="1" stroke-opacity="1" stroke="rgb(127,96,0)"></rect><text id="process6eec6ca6-497f-4f0e-bff2-acd908923385Text" x="370" y="28.90625" fill="black" font-size="12" font-family="Arial" font-weight="normal" text-anchor="middle"><tspan x="415" dy="14.09375">game_state = </tspan><tspan x="415" dy="14.09375">START </tspan></text><rect id="368c1f1c-097c-4181-adf3-f440ef20438d" x="365" y="15" height="60" width="100" stroke-width="1" stroke-dasharray="3,1" fill="none" stroke="none"></rect><rect id="process7f191974-f7e0-4296-8fbe-2d0ee9361cd9" x="500" y="20" height="50" width="90" rx="0" ry="0" fill="rgb(255, 255, 255)" fill-opacity="1" stroke-opacity="1" stroke="rgb(255, 217, 101)"></rect><text id="process7f191974-f7e0-4296-8fbe-2d0ee9361cd9Text" x="500" y="35.953125" fill="black" font-size="12" font-family="Arial" font-weight="normal" text-anchor="middle"><tspan x="545" dy="14.09375">Start screen </tspan></text><rect id="e1cac2d0-4e4b-4795-be2f-ebf9678234cc" x="495" y="15" height="60" width="100" stroke-width="1" stroke-dasharray="3,1" fill="none" stroke="none"></rect><polyline id="linec2cb1ece-870e-4fc0-b6c3-ae74ab75df85" points=" 95,440  95,460  95,460  95,460  95,450  95,450  95,450  95,450  95,470 " fill="none" stroke="black" stroke-width="1"></polyline><polyline id="linec2cb1ece-870e-4fc0-b6c3-ae74ab75df85back" points=" 95,440  95,460  95,460  95,460  95,450  95,450  95,450  95,450  95,470 " fill="none" stroke="gray" stroke-width="15" opacity="0"></polyline><rect id="linec2cb1ece-870e-4fc0-b6c3-ae74ab75df85textback" x="95" y="440.953125" height="1" width="0" fill="none" stroke-width="0"></rect><text id="linec2cb1ece-870e-4fc0-b6c3-ae74ab75df85text" x="50" y="440.953125" fill="black" font-size="12" font-family="Arial" font-weight="normal" text-anchor="middle"><tspan x="95" dy="14.09375"> </tspan></text><polygon id="linehead5b1e8b7e-7acf-4ef5-912b-b2e93a4ad5d6" points=" 95,460  90,460  95,470  100,460  95,460 " fill="black" stroke="black" fill-rule="nonzero"></polygon><polyline id="line9478e7a3-58b2-4f9e-afb2-2af7f073e3bf" points=" 95,520  95,540  95,540  95,560  95,560  95,580  95,580  95,600 " fill="none" stroke="black" stroke-width="1" stroke-dasharray="4,2"></polyline><polyline id="line9478e7a3-58b2-4f9e-afb2-2af7f073e3bfback" points=" 95,520  95,540  95,540  95,560  95,560  95,580  95,580  95,600 " fill="none" stroke="gray" stroke-width="15" opacity="0"></polyline><rect id="line9478e7a3-58b2-4f9e-afb2-2af7f073e3bftextback" x="95" y="550.953125" height="1" width="0" fill="none" stroke-width="0"></rect><text id="line9478e7a3-58b2-4f9e-afb2-2af7f073e3bftext" x="50" y="550.953125" fill="black" font-size="12" font-family="Arial" font-weight="normal" text-anchor="middle"><tspan x="95" dy="14.09375"> </tspan></text><polygon id="linehead6cf86969-b7ff-48f4-96fe-cb091938ce1d" points=" 95,590  90,590  95,600  100,590  95,590 " fill="black" stroke="black" fill-rule="nonzero"></polygon><polyline id="linea1cb54e0-2bd3-4520-a798-8111c5db2894" points="50,635  25,635  25,635  25,635  25,495  25,495  25,495  50,495  " fill="none" stroke="black" stroke-width="1"></polyline><polyline id="linea1cb54e0-2bd3-4520-a798-8111c5db2894back" points="50,635  25,635  25,635  25,635  25,495  25,495  25,495  50,495  " fill="none" stroke="gray" stroke-width="15" opacity="0"></polyline><rect id="linea1cb54e0-2bd3-4520-a798-8111c5db2894textback" x="10.46095" y="625.953125" height="15.0938" width="29.0781" fill="white" stroke-width="0"></rect><text id="linea1cb54e0-2bd3-4520-a798-8111c5db2894text" x="-15" y="625.953125" fill="black" font-size="12" font-family="Arial" font-weight="normal" text-anchor="middle"><tspan x="25" dy="14.09375">False </tspan></text><polygon id="linehead1c67d3d4-aed8-4d42-9d88-07b2b4754abd" points=" 40,495  40,490  50,495  40,500  40,495 " fill="black" stroke="black" fill-rule="nonzero"></polygon><polyline id="linedd500dc1-d1ab-42ab-9913-16d432f8f045" points=" 415,670  415,690  415,690  415,705  415,705  415,720  415,720  415,740 " fill="none" stroke="black" stroke-width="1" stroke-dasharray="4,2"></polyline><polyline id="linedd500dc1-d1ab-42ab-9913-16d432f8f045back" points=" 415,670  415,690  415,690  415,705  415,705  415,720  415,720  415,740 " fill="none" stroke="gray" stroke-width="15" opacity="0"></polyline><rect id="linedd500dc1-d1ab-42ab-9913-16d432f8f045textback" x="415" y="695.953125" height="1" width="0" fill="none" stroke-width="0"></rect><text id="linedd500dc1-d1ab-42ab-9913-16d432f8f045text" x="210" y="695.953125" fill="black" font-size="12" font-family="Arial" font-weight="normal" text-anchor="middle"><tspan x="415" dy="14.09375"> </tspan></text><polygon id="linehead263269fd-60c1-4cd8-80c8-101cbafdd249" points=" 415,680  410,680  415,670  420,680  415,680 " fill="black" stroke="black" fill-rule="nonzero"></polygon><polyline id="line71c0a3b6-e2e4-4a1a-8229-9f74fe9e47be" points="460,635  485,635  485,635  485,635  485,765  485,765  485,765  460,765  " fill="none" stroke="black" stroke-width="1"></polyline><polyline id="line71c0a3b6-e2e4-4a1a-8229-9f74fe9e47beback" points="460,635  485,635  485,635  485,635  485,765  485,765  485,765  460,765  " fill="none" stroke="gray" stroke-width="15" opacity="0"></polyline><rect id="line71c0a3b6-e2e4-4a1a-8229-9f74fe9e47betextback" x="470.46095" y="625.953125" height="15.0938" width="29.0781" fill="white" stroke-width="0"></rect><text id="line71c0a3b6-e2e4-4a1a-8229-9f74fe9e47betext" x="275" y="625.953125" fill="black" font-size="12" font-family="Arial" font-weight="normal" text-anchor="middle"><tspan x="485" dy="14.09375">False </tspan></text><polygon id="linehead16d2210f-bcf0-474a-860e-274a24667979" points=" 470,765  470,760  460,765  470,770  470,765 " fill="black" stroke="black" fill-rule="nonzero"></polygon><polyline id="linebec1b3fa-d274-470a-aeca-41d7e82b22e9" points=" 415,530  415,550  415,550  415,565  415,565  415,580  415,580  415,600 " fill="none" stroke="black" stroke-width="1"></polyline><polyline id="linebec1b3fa-d274-470a-aeca-41d7e82b22e9back" points=" 415,530  415,550  415,550  415,565  415,565  415,580  415,580  415,600 " fill="none" stroke="gray" stroke-width="15" opacity="0"></polyline><rect id="linebec1b3fa-d274-470a-aeca-41d7e82b22e9textback" x="402.71095" y="555.953125" height="15.0938" width="24.5781" fill="white" stroke-width="0"></rect><text id="linebec1b3fa-d274-470a-aeca-41d7e82b22e9text" x="210" y="555.953125" fill="black" font-size="12" font-family="Arial" font-weight="normal" text-anchor="middle"><tspan x="415" dy="14.09375">True </tspan></text><polygon id="linehead589c46ad-cddc-4052-b3d2-85a2259ccd2b" points=" 415,540  410,540  415,530  420,540  415,540 " fill="black" stroke="black" fill-rule="nonzero"></polygon><polyline id="line0d677149-ba81-41cc-bbf5-e6bccf02f50e" points=" 95,670  95,690  95,690  95,700  95,700  95,710  95,710  95,730 " fill="none" stroke="black" stroke-width="1"></polyline><polyline id="line0d677149-ba81-41cc-bbf5-e6bccf02f50eback" points=" 95,670  95,690  95,690  95,700  95,700  95,710  95,710  95,730 " fill="none" stroke="gray" stroke-width="15" opacity="0"></polyline><rect id="line0d677149-ba81-41cc-bbf5-e6bccf02f50etextback" x="82.71095" y="690.953125" height="15.0938" width="24.5781" fill="white" stroke-width="0"></rect><text id="line0d677149-ba81-41cc-bbf5-e6bccf02f50etext" x="50" y="690.953125" fill="black" font-size="12" font-family="Arial" font-weight="normal" text-anchor="middle"><tspan x="95" dy="14.09375">True </tspan></text><polygon id="linehead59e7aa03-8220-4ef1-9909-df3b161c4259" points=" 95,720  90,720  95,730  100,720  95,720 " fill="black" stroke="black" fill-rule="nonzero"></polygon><polyline id="linea099195c-e4e5-4f43-af88-2ad64b619838" points=" 140,765  160,765  160,765  175,765  175,635  190,635  190,635  210,635 " fill="none" stroke="black" stroke-width="1"></polyline><polyline id="linea099195c-e4e5-4f43-af88-2ad64b619838back" points=" 140,765  160,765  160,765  175,765  175,635  190,635  190,635  210,635 " fill="none" stroke="gray" stroke-width="15" opacity="0"></polyline><rect id="linea099195c-e4e5-4f43-af88-2ad64b619838textback" x="160.46095" y="755.953125" height="15.0938" width="29.0781" fill="white" stroke-width="0"></rect><text id="linea099195c-e4e5-4f43-af88-2ad64b619838text" x="120" y="755.953125" fill="black" font-size="12" font-family="Arial" font-weight="normal" text-anchor="middle"><tspan x="175" dy="14.09375">False </tspan></text><polygon id="linehead02edd403-fc39-4621-b648-0b8037b2e4b5" points=" 200,635  200,630  210,635  200,640  200,635 " fill="black" stroke="black" fill-rule="nonzero"></polygon><polyline id="line687a123c-2f66-4e3f-97f7-311b9b2192b0" points=" 300,635  320,635  320,635  335,635  335,495  350,495  350,495  370,495 " fill="none" stroke="black" stroke-width="1"></polyline><polyline id="line687a123c-2f66-4e3f-97f7-311b9b2192b0back" points=" 300,635  320,635  320,635  335,635  335,495  350,495  350,495  370,495 " fill="none" stroke="gray" stroke-width="15" opacity="0"></polyline><rect id="line687a123c-2f66-4e3f-97f7-311b9b2192b0textback" x="320.46095" y="625.953125" height="15.0938" width="29.0781" fill="white" stroke-width="0"></rect><text id="line687a123c-2f66-4e3f-97f7-311b9b2192b0text" x="260" y="625.953125" fill="black" font-size="12" font-family="Arial" font-weight="normal" text-anchor="middle"><tspan x="335" dy="14.09375">False </tspan></text><polygon id="linehead0b776379-5a36-46f1-add4-4298773c20c6" points=" 310,635  310,630  300,635  310,640  310,635 " fill="black" stroke="black" fill-rule="nonzero"></polygon><polyline id="line0bc3a5f1-6b84-4f9a-80e1-895df0275d18" points=" 255,670  255,690  255,690  255,767.5  255,767.5  255,845  350,845  350,845  370,845 " fill="none" stroke="black" stroke-width="1"></polyline><polyline id="line0bc3a5f1-6b84-4f9a-80e1-895df0275d18back" points=" 255,670  255,690  255,690  255,767.5  255,767.5  255,845  350,845  350,845  370,845 " fill="none" stroke="gray" stroke-width="15" opacity="0"></polyline><rect id="line0bc3a5f1-6b84-4f9a-80e1-895df0275d18textback" x="240.2422" y="758.453125" height="15.0938" width="29.5156" fill="white" stroke-width="0"></rect><text id="line0bc3a5f1-6b84-4f9a-80e1-895df0275d18text" x="190" y="758.453125" fill="black" font-size="12" font-family="Arial" font-weight="normal" text-anchor="middle"><tspan x="255" dy="14.09375">PLAY </tspan></text><polygon id="lineheadcd6c545d-1c07-45e8-a7ec-64f07383f886" points=" 360,845  360,840  370,845  360,850  360,845 " fill="black" stroke="black" fill-rule="nonzero"></polygon><polyline id="line8e015228-efe3-498e-a3e9-c5d3db82be31" points=" 140,415  160,415  160,415  207.5,415  207.5,415  255,415  255,580  255,580  255,600 " fill="none" stroke="black" stroke-width="1"></polyline><polyline id="line8e015228-efe3-498e-a3e9-c5d3db82be31back" points=" 140,415  160,415  160,415  207.5,415  207.5,415  255,415  255,580  255,580  255,600 " fill="none" stroke="gray" stroke-width="15" opacity="0"></polyline><rect id="line8e015228-efe3-498e-a3e9-c5d3db82be31textback" x="190.1797" y="405.953125" height="15.0938" width="34.6406" fill="white" stroke-width="0"></rect><text id="line8e015228-efe3-498e-a3e9-c5d3db82be31text" x="152.5" y="405.953125" fill="black" font-size="12" font-family="Arial" font-weight="normal" text-anchor="middle"><tspan x="207.5" dy="14.09375">COMP </tspan></text><polygon id="lineheadcc6897a8-76d1-4091-a6e7-45c298799cc1" points=" 150,415  150,410  140,415  150,420  150,415 " fill="black" stroke="black" fill-rule="nonzero"></polygon><polyline id="line2d1f5e3b-4eaa-4d96-9a4c-743cd9ef7297" points=" 415,790  415,810  415,810  415,810  415,800  415,800  415,800  415,800  415,820 " fill="none" stroke="black" stroke-width="1"></polyline><polyline id="line2d1f5e3b-4eaa-4d96-9a4c-743cd9ef7297back" points=" 415,790  415,810  415,810  415,810  415,800  415,800  415,800  415,800  415,820 " fill="none" stroke="gray" stroke-width="15" opacity="0"></polyline><rect id="line2d1f5e3b-4eaa-4d96-9a4c-743cd9ef7297textback" x="415" y="790.953125" height="1" width="0" fill="none" stroke-width="0"></rect><text id="line2d1f5e3b-4eaa-4d96-9a4c-743cd9ef7297text" x="330" y="790.953125" fill="black" font-size="12" font-family="Arial" font-weight="normal" text-anchor="middle"><tspan x="415" dy="14.09375"> </tspan></text><polygon id="linehead263e0c17-fa02-4a51-85cb-ca1eaeffa79e" points=" 415,800  410,800  415,790  420,800  415,800 " fill="black" stroke="black" fill-rule="nonzero"></polygon><polyline id="line944a4315-9eed-40e9-8ece-5ee732019c81" points="640,845  610,845  610,765  610,765  610,495  610,495  610,495  640,495  " fill="none" stroke="black" stroke-width="1"></polyline><polyline id="line944a4315-9eed-40e9-8ece-5ee732019c81back" points="640,845  610,845  610,765  610,765  610,495  610,495  610,495  640,495  " fill="none" stroke="gray" stroke-width="15" opacity="0"></polyline><rect id="line944a4315-9eed-40e9-8ece-5ee732019c81textback" x="595.46095" y="755.953125" height="15.0938" width="29.0781" fill="white" stroke-width="0"></rect><text id="line944a4315-9eed-40e9-8ece-5ee732019c81text" x="565" y="755.953125" fill="black" font-size="12" font-family="Arial" font-weight="normal" text-anchor="middle"><tspan x="610" dy="14.09375">False </tspan></text><polygon id="lineheadae4bc135-82f1-4fe1-b55c-c60d549d306a" points=" 630,495  630,490  640,495  630,500  630,495 " fill="black" stroke="black" fill-rule="nonzero"></polygon><polyline id="line5460e88a-1cda-44c4-b026-71fb29a93deb" points=" 685,660  685,680  685,680  685,735  685,735  685,790  685,790  685,810 " fill="none" stroke="black" stroke-width="1"></polyline><polyline id="line5460e88a-1cda-44c4-b026-71fb29a93debback" points=" 685,660  685,680  685,680  685,735  685,735  685,790  685,790  685,810 " fill="none" stroke="gray" stroke-width="15" opacity="0"></polyline><rect id="line5460e88a-1cda-44c4-b026-71fb29a93debtextback" x="672.71095" y="725.953125" height="15.0938" width="24.5781" fill="white" stroke-width="0"></rect><text id="line5460e88a-1cda-44c4-b026-71fb29a93debtext" x="630" y="725.953125" fill="black" font-size="12" font-family="Arial" font-weight="normal" text-anchor="middle"><tspan x="685" dy="14.09375">True </tspan></text><polygon id="lineheadfcfdaca7-d69f-4a76-82f7-40d9b3d361af" points=" 685,670  680,670  685,660  690,670  685,670 " fill="black" stroke="black" fill-rule="nonzero"></polygon><polyline id="line4d8763f6-94e6-47a9-b751-7967d9d40c8d" points=" 590,415  610,415  610,415  647.5,415  647.5,415  685,415  685,450  685,450  685,470 " fill="none" stroke="black" stroke-width="1"></polyline><polyline id="line4d8763f6-94e6-47a9-b751-7967d9d40c8dback" points=" 590,415  610,415  610,415  647.5,415  647.5,415  685,415  685,450  685,450  685,470 " fill="none" stroke="gray" stroke-width="15" opacity="0"></polyline><rect id="line4d8763f6-94e6-47a9-b751-7967d9d40c8dtextback" x="647.5" y="405.953125" height="1" width="0" fill="none" stroke-width="0"></rect><text id="line4d8763f6-94e6-47a9-b751-7967d9d40c8dtext" x="607.5" y="405.953125" fill="black" font-size="12" font-family="Arial" font-weight="normal" text-anchor="middle"><tspan x="647.5" dy="14.09375"> </tspan></text><polygon id="lineheadbb747042-26ea-44ee-b8ca-68607a7f15cc" points=" 685,460  680,460  685,470  690,460  685,460 " fill="black" stroke="black" fill-rule="nonzero"></polygon><polyline id="line18b4151d-40d6-4c74-b1de-968fe49d187e" points=" 685,880  685,900  685,900  685,957.5  685,957.5  685,1015  610,1015  610,1015  590,1015 " fill="none" stroke="black" stroke-width="1"></polyline><polyline id="line18b4151d-40d6-4c74-b1de-968fe49d187eback" points=" 685,880  685,900  685,900  685,957.5  685,957.5  685,1015  610,1015  610,1015  590,1015 " fill="none" stroke="gray" stroke-width="15" opacity="0"></polyline><rect id="line18b4151d-40d6-4c74-b1de-968fe49d187etextback" x="685" y="948.453125" height="1" width="0" fill="none" stroke-width="0"></rect><text id="line18b4151d-40d6-4c74-b1de-968fe49d187etext" x="660" y="948.453125" fill="black" font-size="12" font-family="Arial" font-weight="normal" text-anchor="middle"><tspan x="685" dy="14.09375"> </tspan></text><polygon id="linehead509ab7c9-8380-4fb5-8aa2-da8e0ffaf73a" points=" 685,890  680,890  685,880  690,890  685,890 " fill="black" stroke="black" fill-rule="nonzero"></polygon><polyline id="line1b893318-0e09-4cdb-84c4-3f1a9efd8f8c" points="210,115  190,115  190,115  25,115  25,385  25,385  25,415  50,415  " fill="none" stroke="black" stroke-width="1"></polyline><polyline id="line1b893318-0e09-4cdb-84c4-3f1a9efd8f8cback" points="210,115  190,115  190,115  25,115  25,385  25,385  25,415  50,415  " fill="none" stroke="gray" stroke-width="15" opacity="0"></polyline><rect id="line1b893318-0e09-4cdb-84c4-3f1a9efd8f8ctextback" x="25" y="105.953125" height="1" width="0" fill="none" stroke-width="0"></rect><text id="line1b893318-0e09-4cdb-84c4-3f1a9efd8f8ctext" x="5" y="105.953125" fill="black" font-size="12" font-family="Arial" font-weight="normal" text-anchor="middle"><tspan x="25" dy="14.09375"> </tspan></text><polygon id="linehead88160323-b733-424e-bdb3-536c2d44d014" points=" 40,415  40,410  50,415  40,420  40,415 " fill="black" stroke="black" fill-rule="nonzero"></polygon><polyline id="lineffdf9e5a-2e80-42a8-98f9-4cd0cbd841a0" points="300,185  320,185  320,185  415,185  415,275  480,275  480,275  500,275  " fill="none" stroke="black" stroke-width="1"></polyline><polyline id="lineffdf9e5a-2e80-42a8-98f9-4cd0cbd841a0back" points="300,185  320,185  320,185  415,185  415,275  480,275  480,275  500,275  " fill="none" stroke="gray" stroke-width="15" opacity="0"></polyline><rect id="lineffdf9e5a-2e80-42a8-98f9-4cd0cbd841a0textback" x="396.4844" y="175.953125" height="15.0938" width="37.0312" fill="white" stroke-width="0"></rect><text id="lineffdf9e5a-2e80-42a8-98f9-4cd0cbd841a0text" x="375" y="175.953125" fill="black" font-size="12" font-family="Arial" font-weight="normal" text-anchor="middle"><tspan x="415" dy="14.09375">SETUP </tspan></text><polygon id="linehead63797f15-bf14-485d-99de-2b362244136c" points=" 310,185  310,180  300,185  310,190  310,185 " fill="black" stroke="black" fill-rule="nonzero"></polygon><polyline id="linede27046a-aba6-42bc-a3b2-9cd3f4bd2102" points="300,115  320,115  320,115  415,115  415,275  480,275  480,275  500,275  " fill="none" stroke="black" stroke-width="1"></polyline><polyline id="linede27046a-aba6-42bc-a3b2-9cd3f4bd2102back" points="300,115  320,115  320,115  415,115  415,275  480,275  480,275  500,275  " fill="none" stroke="gray" stroke-width="15" opacity="0"></polyline><rect id="linede27046a-aba6-42bc-a3b2-9cd3f4bd2102textback" x="415" y="105.953125" height="1" width="0" fill="none" stroke-width="0"></rect><text id="linede27046a-aba6-42bc-a3b2-9cd3f4bd2102text" x="375" y="105.953125" fill="black" font-size="12" font-family="Arial" font-weight="normal" text-anchor="middle"><tspan x="415" dy="14.09375"> </tspan></text><polygon id="linehead46da71d5-f0a5-45a9-bf1c-6846634be23c" points=" 310,115  310,110  300,115  310,120  310,115 " fill="black" stroke="black" fill-rule="nonzero"></polygon><polyline id="line14653957-0189-4f08-8314-3c1100cbcaad" points="545,310  545,335  545,335  545,335  750,335  750,465  750,465  750,495  730,495  " fill="none" stroke="black" stroke-width="1"></polyline><polyline id="line14653957-0189-4f08-8314-3c1100cbcaadback" points="545,310  545,335  545,335  545,335  750,335  750,465  750,465  750,495  730,495  " fill="none" stroke="gray" stroke-width="15" opacity="0"></polyline><rect id="line14653957-0189-4f08-8314-3c1100cbcaadtextback" x="750" y="325.953125" height="1" width="0" fill="none" stroke-width="0"></rect><text id="line14653957-0189-4f08-8314-3c1100cbcaadtext" x="725" y="325.953125" fill="black" font-size="12" font-family="Arial" font-weight="normal" text-anchor="middle"><tspan x="750" dy="14.09375"> </tspan></text><polygon id="linehead3bd0ddb9-95b6-422d-b55f-f21175e06c67" points=" 545,320  540,320  545,310  550,320  545,320 " fill="black" stroke="black" fill-rule="nonzero"></polygon><polyline id="line12596966-ff76-4118-a0ba-1739c7d70663" points="545,310  545,335  545,335  545,335  750,335  750,605  750,605  750,635  730,635  " fill="none" stroke="black" stroke-width="1"></polyline><polyline id="line12596966-ff76-4118-a0ba-1739c7d70663back" points="545,310  545,335  545,335  545,335  750,335  750,605  750,605  750,635  730,635  " fill="none" stroke="gray" stroke-width="15" opacity="0"></polyline><rect id="line12596966-ff76-4118-a0ba-1739c7d70663textback" x="750" y="325.953125" height="1" width="0" fill="none" stroke-width="0"></rect><text id="line12596966-ff76-4118-a0ba-1739c7d70663text" x="725" y="325.953125" fill="black" font-size="12" font-family="Arial" font-weight="normal" text-anchor="middle"><tspan x="750" dy="14.09375"> </tspan></text><polygon id="lineheadf83b4814-7df0-436d-a525-228516ef800b" points=" 545,320  540,320  545,310  550,320  545,320 " fill="black" stroke="black" fill-rule="nonzero"></polygon><polyline id="lineb42a96a6-7594-4e83-8f42-8cb5dd036d7e" points=" 685,135  685,155  685,155  685,215  685,215  685,275  610,275  610,275  590,275 " fill="none" stroke="black" stroke-width="1"></polyline><polyline id="lineb42a96a6-7594-4e83-8f42-8cb5dd036d7eback" points=" 685,135  685,155  685,155  685,215  685,215  685,275  610,275  610,275  590,275 " fill="none" stroke="gray" stroke-width="15" opacity="0"></polyline><rect id="lineb42a96a6-7594-4e83-8f42-8cb5dd036d7etextback" x="671.5625" y="205.953125" height="15.0938" width="26.875" fill="white" stroke-width="0"></rect><text id="lineb42a96a6-7594-4e83-8f42-8cb5dd036d7etext" x="660" y="205.953125" fill="black" font-size="12" font-family="Arial" font-weight="normal" text-anchor="middle"><tspan x="685" dy="14.09375">QUIT </tspan></text><polygon id="linehead2454d2d8-0953-4882-b226-6de047446bcb" points=" 685,145  680,145  685,135  690,145  685,145 " fill="black" stroke="black" fill-rule="nonzero"></polygon><polyline id="line41915053-a060-4315-83df-b9b8c08a426f" points=" 210,185  190,185  190,185  142.5,185  142.5,185  95,185  95,220  95,220  95,240 " fill="none" stroke="black" stroke-width="1"></polyline><polyline id="line41915053-a060-4315-83df-b9b8c08a426fback" points=" 210,185  190,185  190,185  142.5,185  142.5,185  95,185  95,220  95,220  95,240 " fill="none" stroke="gray" stroke-width="15" opacity="0"></polyline><rect id="line41915053-a060-4315-83df-b9b8c08a426ftextback" x="142.5" y="175.953125" height="1" width="0" fill="none" stroke-width="0"></rect><text id="line41915053-a060-4315-83df-b9b8c08a426ftext" x="117.5" y="175.953125" fill="black" font-size="12" font-family="Arial" font-weight="normal" text-anchor="middle"><tspan x="142.5" dy="14.09375"> </tspan></text><polygon id="linehead5e7b6c44-c0d3-4aee-bd6f-bdb719e17c9f" points=" 95,230  90,230  95,240  100,230  95,230 " fill="black" stroke="black" fill-rule="nonzero"></polygon><polyline id="line3605accc-9558-43f8-8947-82f2e7bdd222" points=" 255,210  255,230  255,230  255,252.5  255,252.5  255,275  160,275  160,275  140,275 " fill="none" stroke="black" stroke-width="1"></polyline><polyline id="line3605accc-9558-43f8-8947-82f2e7bdd222back" points=" 255,210  255,230  255,230  255,252.5  255,252.5  255,275  160,275  160,275  140,275 " fill="none" stroke="gray" stroke-width="15" opacity="0"></polyline><rect id="line3605accc-9558-43f8-8947-82f2e7bdd222textback" x="240.46095" y="243.453125" height="15.0938" width="29.0781" fill="white" stroke-width="0"></rect><text id="line3605accc-9558-43f8-8947-82f2e7bdd222text" x="230" y="243.453125" fill="black" font-size="12" font-family="Arial" font-weight="normal" text-anchor="middle"><tspan x="255" dy="14.09375">False </tspan></text><polygon id="linehead16023e06-2efa-4750-b9e1-fc2536e015fa" points=" 255,220  250,220  255,210  260,220  255,220 " fill="black" stroke="black" fill-rule="nonzero"></polygon><polyline id="linea0779d37-ad1b-4b69-a1cc-c13e25356373" points=" 95,310  95,330  95,330  95,350  95,350  95,370  95,370  95,390 " fill="none" stroke="black" stroke-width="1"></polyline><polyline id="linea0779d37-ad1b-4b69-a1cc-c13e25356373back" points=" 95,310  95,330  95,330  95,350  95,350  95,370  95,370  95,390 " fill="none" stroke="gray" stroke-width="15" opacity="0"></polyline><rect id="linea0779d37-ad1b-4b69-a1cc-c13e25356373textback" x="82.71095" y="340.953125" height="15.0938" width="24.5781" fill="white" stroke-width="0"></rect><text id="linea0779d37-ad1b-4b69-a1cc-c13e25356373text" x="70" y="340.953125" fill="black" font-size="12" font-family="Arial" font-weight="normal" text-anchor="middle"><tspan x="95" dy="14.09375">True </tspan></text><polygon id="linehead97c426ba-1fd0-4745-a3f0-ac2b02f405b9" points=" 95,380  90,380  95,390  100,380  95,380 " fill="black" stroke="black" fill-rule="nonzero"></polygon><polyline id="line0077f034-a111-4225-b82b-fa0fc56b1978" points=" 255,140  255,160  255,160  255,160  255,140  255,140  255,140  255,140  255,160 " fill="none" stroke="black" stroke-width="1"></polyline><polyline id="line0077f034-a111-4225-b82b-fa0fc56b1978back" points=" 255,140  255,160  255,160  255,160  255,140  255,140  255,140  255,140  255,160 " fill="none" stroke="gray" stroke-width="15" opacity="0"></polyline><rect id="line0077f034-a111-4225-b82b-fa0fc56b1978textback" x="255" y="130.953125" height="1" width="0" fill="none" stroke-width="0"></rect><text id="line0077f034-a111-4225-b82b-fa0fc56b1978text" x="230" y="130.953125" fill="black" font-size="12" font-family="Arial" font-weight="normal" text-anchor="middle"><tspan x="255" dy="14.09375"> </tspan></text><polygon id="linehead04e3345c-df9b-4dd5-a94f-1cbc468189e1" points=" 255,150  250,150  255,140  260,150  255,150 " fill="black" stroke="black" fill-rule="nonzero"></polygon><polyline id="line79118518-3ca3-419f-943e-be2e4e453bcb" points=" 460,495  480,495  480,495  512.5,495  512.5,495  545,495  545,880  545,880  545,900 " fill="none" stroke="black" stroke-width="1"></polyline><polyline id="line79118518-3ca3-419f-943e-be2e4e453bcbback" points=" 460,495  480,495  480,495  512.5,495  512.5,495  545,495  545,880  545,880  545,900 " fill="none" stroke="gray" stroke-width="15" opacity="0"></polyline><rect id="line79118518-3ca3-419f-943e-be2e4e453bcbtextback" x="500.21095" y="485.953125" height="15.0938" width="24.5781" fill="white" stroke-width="0"></rect><text id="line79118518-3ca3-419f-943e-be2e4e453bcbtext" x="487.5" y="485.953125" fill="black" font-size="12" font-family="Arial" font-weight="normal" text-anchor="middle"><tspan x="512.5" dy="14.09375">True </tspan></text><polygon id="linehead48054adf-ca58-4d27-933e-8656ddc9bfa2" points=" 545,890  540,890  545,900  550,890  545,890 " fill="black" stroke="black" fill-rule="nonzero"></polygon><polyline id="line890e6895-076c-4b9d-84db-0694744c17cb" points=" 95,800  95,820  95,820  95,872.5  95,872.5  95,925  480,925  480,925  500,925 " fill="none" stroke="black" stroke-width="1"></polyline><polyline id="line890e6895-076c-4b9d-84db-0694744c17cbback" points=" 95,800  95,820  95,820  95,872.5  95,872.5  95,925  480,925  480,925  500,925 " fill="none" stroke="gray" stroke-width="15" opacity="0"></polyline><rect id="line890e6895-076c-4b9d-84db-0694744c17cbtextback" x="82.71095" y="863.453125" height="15.0938" width="24.5781" fill="white" stroke-width="0"></rect><text id="line890e6895-076c-4b9d-84db-0694744c17cbtext" x="70" y="863.453125" fill="black" font-size="12" font-family="Arial" font-weight="normal" text-anchor="middle"><tspan x="95" dy="14.09375">True </tspan></text><polygon id="linehead16471aa9-65e8-47f9-a9a6-bb7e4b794cd8" points=" 490,925  490,920  500,925  490,930  490,925 " fill="black" stroke="black" fill-rule="nonzero"></polygon><polyline id="line5133728b-d6ac-411b-a6da-1ec5ef214f10" points=" 545,950  545,970  545,970  545,970  545,970  545,970  545,970  545,990 " fill="none" stroke="black" stroke-width="1"></polyline><polyline id="line5133728b-d6ac-411b-a6da-1ec5ef214f10back" points=" 545,950  545,970  545,970  545,970  545,970  545,970  545,970  545,990 " fill="none" stroke="gray" stroke-width="15" opacity="0"></polyline><rect id="line5133728b-d6ac-411b-a6da-1ec5ef214f10textback" x="545" y="960.953125" height="1" width="0" fill="none" stroke-width="0"></rect><text id="line5133728b-d6ac-411b-a6da-1ec5ef214f10text" x="520" y="960.953125" fill="black" font-size="12" font-family="Arial" font-weight="normal" text-anchor="middle"><tspan x="545" dy="14.09375"> </tspan></text><polygon id="lineheadaca8e8ee-3e48-431e-b999-fb12f507618d" points=" 545,980  540,980  545,990  550,980  545,980 " fill="black" stroke="black" fill-rule="nonzero"></polygon><polyline id="lineb7994855-79d2-4c20-8f6e-e35d2f886b9b" points=" 460,45  480,45  480,45  480,45  480,45  480,45  480,45  500,45 " fill="none" stroke="black" stroke-width="1"></polyline><polyline id="lineb7994855-79d2-4c20-8f6e-e35d2f886b9bback" points=" 460,45  480,45  480,45  480,45  480,45  480,45  480,45  500,45 " fill="none" stroke="gray" stroke-width="15" opacity="0"></polyline><rect id="lineb7994855-79d2-4c20-8f6e-e35d2f886b9btextback" x="480" y="35.953125" height="1" width="0" fill="none" stroke-width="0"></rect><text id="lineb7994855-79d2-4c20-8f6e-e35d2f886b9btext" x="455" y="35.953125" fill="black" font-size="12" font-family="Arial" font-weight="normal" text-anchor="middle"><tspan x="480" dy="14.09375"> </tspan></text><polygon id="linehead2e13292c-30f7-402f-913b-e3a040ca4805" points=" 490,45  490,40  500,45  490,50  490,45 " fill="black" stroke="black" fill-rule="nonzero"></polygon><polyline id="linecc9b8f2f-e23a-4456-b2da-116f3a65c7d1" points=" 545,70  545,90  545,90  545,90  545,70  545,70  545,70  545,70  545,90 " fill="none" stroke="black" stroke-width="1"></polyline><polyline id="linecc9b8f2f-e23a-4456-b2da-116f3a65c7d1back" points=" 545,70  545,90  545,90  545,90  545,70  545,70  545,70  545,70  545,90 " fill="none" stroke="gray" stroke-width="15" opacity="0"></polyline><rect id="linecc9b8f2f-e23a-4456-b2da-116f3a65c7d1textback" x="545" y="60.953125" height="1" width="0" fill="none" stroke-width="0"></rect><text id="linecc9b8f2f-e23a-4456-b2da-116f3a65c7d1text" x="520" y="60.953125" fill="black" font-size="12" font-family="Arial" font-weight="normal" text-anchor="middle"><tspan x="545" dy="14.09375"> </tspan></text><polygon id="lineheadc0621434-f797-4322-8ece-daceda13bb2c" points=" 545,80  540,80  545,90  550,80  545,80 " fill="black" stroke="black" fill-rule="nonzero"></polygon><polyline id="lined83962a3-ea4f-41c4-ac67-ee47515b70df" points=" 545,140  545,160  545,160  545,160  545,140  545,140  545,140  545,140  545,160 " fill="none" stroke="black" stroke-width="1"></polyline><polyline id="lined83962a3-ea4f-41c4-ac67-ee47515b70dfback" points=" 545,140  545,160  545,160  545,160  545,140  545,140  545,140  545,140  545,160 " fill="none" stroke="gray" stroke-width="15" opacity="0"></polyline><rect id="lined83962a3-ea4f-41c4-ac67-ee47515b70dftextback" x="545" y="130.953125" height="1" width="0" fill="none" stroke-width="0"></rect><text id="lined83962a3-ea4f-41c4-ac67-ee47515b70dftext" x="520" y="130.953125" fill="black" font-size="12" font-family="Arial" font-weight="normal" text-anchor="middle"><tspan x="545" dy="14.09375"> </tspan></text><polygon id="lineheade9df1463-68b4-4875-ba7c-4ff2a77f4be3" points=" 545,150  540,150  545,160  550,150  545,150 " fill="black" stroke="black" fill-rule="nonzero"></polygon><polyline id="lineea248787-1cc5-4d84-819f-9946d116b90b" points=" 545,210  545,230  545,230  545,230  545,220  545,220  545,220  545,220  545,240 " fill="none" stroke="black" stroke-width="1"></polyline><polyline id="lineea248787-1cc5-4d84-819f-9946d116b90bback" points=" 545,210  545,230  545,230  545,230  545,220  545,220  545,220  545,220  545,240 " fill="none" stroke="gray" stroke-width="15" opacity="0"></polyline><rect id="lineea248787-1cc5-4d84-819f-9946d116b90btextback" x="545" y="210.953125" height="1" width="0" fill="none" stroke-width="0"></rect><text id="lineea248787-1cc5-4d84-819f-9946d116b90btext" x="520" y="210.953125" fill="black" font-size="12" font-family="Arial" font-weight="normal" text-anchor="middle"><tspan x="545" dy="14.09375"> </tspan></text><polygon id="linehead0c8b6349-36e0-41da-9219-fed8f1522d48" points=" 545,230  540,230  545,240  550,230  545,230 " fill="black" stroke="black" fill-rule="nonzero"></polygon><text x="565" y="1090" fill="#252526" font-size="14" font-family="Arial" font-weight="bold" opacity="1">Flowdia Diagrams Lite Version</text></svg>